<svg width="140" height="47" viewBox="0 0 140 47" fill="none" xmlns="http://www.w3.org/2000/svg">
<path d="M77.3992 12.688C77.3992 11.216 78.5816 9.99609 80.0063 9.99609C81.4327 9.99609 82.6134 11.216 82.6134 12.688V34.223C82.6134 35.695 81.431 36.9149 80.0063 36.9149C79.3536 36.9149 78.6612 36.6629 78.173 36.1151L61.7532 19.1656V34.223C61.7532 35.695 60.5709 36.9149 59.1462 36.9149C57.7214 36.9149 56.5391 35.695 56.5391 34.223V12.688C56.5391 11.216 57.7214 9.99609 59.1462 9.99609C59.8386 9.99609 60.4912 10.2901 60.9794 10.7959L77.3992 27.7454V12.688Z" fill="white"/>
<path d="M86.8051 14.58C86.3152 14.0759 86.0312 13.4021 86.0312 12.688C86.0312 11.258 87.2534 9.99609 88.6383 9.99609C89.3308 9.99609 89.9834 10.2901 90.4716 10.7959L99.0684 19.6697L107.665 10.7959C108.155 10.2901 108.806 9.99609 109.498 9.99609C110.883 9.99609 112.106 11.258 112.106 12.688C112.106 13.4038 111.82 14.0759 111.332 14.58L102.735 23.4555L111.332 32.331C111.822 32.8771 112.106 33.5509 112.106 34.223C112.106 35.695 110.923 36.9149 109.498 36.9149C108.806 36.9149 108.195 36.6629 107.665 36.1151L99.0684 27.2413L90.4716 36.1151C89.9419 36.6629 89.2892 36.9149 88.6383 36.9149C87.2119 36.9149 86.0312 35.695 86.0312 34.223C86.0312 33.5072 86.2753 32.8771 86.8051 32.331L95.4019 23.4555L86.8051 14.58Z" fill="white"/>
<path d="M125.332 15.3799H117.916C116.489 15.3799 115.309 14.1599 115.309 12.688C115.309 11.216 116.491 9.99609 117.916 9.99609H137.067C138.494 9.99609 139.674 11.216 139.674 12.688C139.674 14.1599 138.492 15.3799 137.067 15.3799H130.548V34.223C130.548 35.695 129.365 36.9149 127.941 36.9149C126.514 36.9149 125.334 35.695 125.334 34.223V15.3799H125.332Z" fill="white"/>
<path d="M11.0612 14.6445H5.10956V29.9775H11.0612V14.6445Z" fill="#D6D8D6"/>
<path d="M42.2719 14.6445H36.3203V29.9775H42.2719V14.6445Z" fill="#D6D8D6"/>
<path d="M37.7671 33.9867L41.2656 26.3594L7.71167 11.8592L4.21324 19.4865L37.7671 33.9867Z" fill="#D6D8D6"/>
<path d="M23.7752 7.83704C26.0047 7.83704 27.8122 6.08266 27.8122 3.91852C27.8122 1.75438 26.0047 0 23.7752 0C21.5456 0 19.7382 1.75438 19.7382 3.91852C19.7382 6.08266 21.5456 7.83704 23.7752 7.83704Z" fill="#ADADAD"/>
<path d="M23.775 46.8917C26.0046 46.8917 27.812 45.1373 27.812 42.9732C27.812 40.8091 26.0046 39.0547 23.775 39.0547C21.5455 39.0547 19.738 40.8091 19.738 42.9732C19.738 45.1373 21.5455 46.8917 23.775 46.8917Z" fill="#ADADAD"/>
<path d="M21.82 6.30263L20.6757 4.37891L8.26119 11.3363L9.40546 13.26L21.82 6.30263Z" fill="#ADADAD"/>
<path d="M38.0003 13.2597L39.1445 11.3359L26.73 4.37855L25.5857 6.30228L38.0003 13.2597Z" fill="#ADADAD"/>
<path d="M20.6838 42.4823L21.8281 40.5586L9.41358 33.6012L8.2693 35.5249L20.6838 42.4823Z" fill="#ADADAD"/>
<path d="M39.1482 35.5253L38.0039 33.6016L25.5894 40.559L26.7336 42.4827L39.1482 35.5253Z" fill="#ADADAD"/>
<path d="M41.1264 38.0079C38.3185 38.0079 36.0352 35.7916 36.0352 33.0661C36.0352 33.0006 36.0369 32.9367 36.0404 32.8712L9.29785 17.8844C9.08665 18.0221 8.86334 18.1465 8.62963 18.254V28.6267C10.3867 29.4366 11.5224 31.1371 11.5224 33.0661C11.5224 35.7899 9.23899 38.0079 6.4311 38.0079C3.6232 38.0079 1.33984 35.7916 1.33984 33.0661C1.33984 31.1354 2.47373 29.4366 4.23256 28.6267V18.254C2.47546 17.4441 1.33984 15.7453 1.33984 13.8146C1.33984 11.0908 3.6232 8.87277 6.4311 8.87277C9.23899 8.87277 11.5224 11.0891 11.5224 13.8146C11.5224 13.939 11.5172 14.065 11.505 14.1944L38.1039 29.1005C38.3618 28.9191 38.637 28.7594 38.9279 28.625V18.2523C37.1708 17.4441 36.0352 15.7436 36.0352 13.8129C36.0352 11.0891 38.3185 8.87109 41.1264 8.87109C43.9343 8.87109 46.2177 11.0874 46.2177 13.8129C46.2177 15.7436 45.082 17.4424 43.3249 18.2523V28.625C45.082 29.4332 46.2177 31.1337 46.2177 33.0644C46.2177 35.7916 43.9343 38.0079 41.1264 38.0079Z" fill="url(#paint0_linear_1_445)"/>
<path d="M41.1243 9.90042C43.354 9.90042 45.1613 11.6547 45.1613 13.8189C45.1613 15.595 43.9373 17.0771 42.2685 17.5577V29.33C43.9373 29.8123 45.1613 31.2943 45.1613 33.0687C45.1613 35.233 43.354 36.9873 41.1243 36.9873C38.8946 36.9873 37.0873 35.233 37.0873 33.0704C37.0873 32.815 37.1167 32.568 37.1652 32.326L9.20221 16.6553C8.74692 17.0737 8.19123 17.3796 7.57495 17.5577V29.33C9.24376 29.8123 10.4677 31.2943 10.4677 33.0687C10.4677 35.233 8.66037 36.9873 6.43067 36.9873C4.20097 36.9873 2.39367 35.233 2.39367 33.0687C2.39367 31.2926 3.61758 29.8106 5.28639 29.33V17.5577C3.61758 17.0754 2.39367 15.5934 2.39367 13.8189C2.39367 11.6547 4.20097 9.90042 6.43067 9.90042C8.66037 9.90042 10.4677 11.6547 10.4677 13.8189C10.4677 14.1348 10.4192 14.4373 10.3465 14.7314L38.2246 30.355C38.7007 29.8761 39.3048 29.5266 39.9817 29.3317V17.5593C38.3129 17.0771 37.089 15.595 37.089 13.8206C37.0873 11.6547 38.8946 9.90042 41.1243 9.90042ZM41.1243 7.85547C37.7364 7.85547 34.9805 10.5305 34.9805 13.8189C34.9805 15.9227 36.0953 17.8013 37.8732 18.865V27.7959L12.5693 13.6156C12.4585 10.4213 9.74578 7.85547 6.42894 7.85547C3.04111 7.85547 0.285156 10.5305 0.285156 13.8189C0.285156 15.9227 1.4 17.8013 3.17787 18.865V28.0227C1.4 29.0864 0.285156 30.965 0.285156 33.0687C0.285156 36.3571 3.04111 39.0322 6.42894 39.0322C9.81676 39.0322 12.5727 36.3571 12.5727 33.0687C12.5727 30.965 11.4579 29.0864 9.68 28.0227V19.285L34.9926 33.4703C35.2055 36.5722 37.8732 39.0322 41.1225 39.0322C44.5103 39.0322 47.2663 36.3571 47.2663 33.0687C47.2663 30.965 46.1515 29.0864 44.3736 28.0227V18.865C46.1515 17.8013 47.2663 15.9227 47.2663 13.8189C47.268 10.5305 44.5121 7.85547 41.1243 7.85547Z" fill="white"/>
<defs>
<linearGradient id="paint0_linear_1_445" x1="1.34095" y1="23.4416" x2="46.2174" y2="23.4416" gradientUnits="userSpaceOnUse">
<stop stop-color="#3EC5F0"/>
<stop offset="0.2063" stop-color="#0880BD"/>
<stop offset="1" stop-color="#1F2F5E"/>
</linearGradient>
</defs>
</svg>
