<svg width="1411" height="940" viewBox="0 0 1411 940" fill="none" xmlns="http://www.w3.org/2000/svg">
<g filter="url(#filter0_d_1_60)">
<rect x="69.0781" y="59.1406" width="1245.86" height="760.358" fill="white"/>
</g>
<path d="M1311.67 587.204C1311.67 587.204 1305.43 579.187 1284.39 580.853C1263.34 582.518 1268.25 597.893 1268.25 597.893" fill="#B2775F"/>
<path d="M1268.24 597.841C1268.24 597.841 1273.8 654.654 1278.26 663.833L1262.4 690.041L1252.62 712.09L1262.4 740.598L1269.13 735.924C1269.13 735.924 1290.05 681.64 1295.19 670.448C1300.08 659.759 1306.54 647.955 1311.67 587.152" fill="#B2775F"/>
<path d="M1267.74 819.662H1142.4L1139.07 795.156L1135.94 795.6L1133.39 818.548L1022.22 819.662L1008.33 763.317L1023.14 694.713L1262.41 690.039L1272.37 731.909L1267.74 819.662Z" fill="#28262E"/>
<path d="M1133.39 715.43V768.204L1156.77 752.506L1168.13 718.773" stroke="#E2E2E2" stroke-width="0.244567" stroke-linecap="round" stroke-linejoin="round"/>
<path d="M1021.51 700.057L1093.96 698.055L1236.57 692.064L1262.36 690.062C1262.36 690.062 1138.42 758.99 1021.48 702.309" fill="black"/>
<path d="M1011.44 696.943C1011.44 696.943 1120.95 737.039 1262.4 690.04L1217.23 559.758L1219.02 347.739L1170.91 317.457L1146.41 366.001L1109 310.387L1053.8 390.111L1069.8 603.018L1045.16 663.893L1019.18 675.157L1011.44 696.943Z" fill="white"/>
<path d="M1199.96 644.973C1199.96 644.973 1213.07 678.178 1263.25 682.696L1254.42 656.992L1199.96 644.973Z" fill="black"/>
<path d="M1068.07 343.285C1068.07 343.285 1031.16 185.238 1076.1 165.381C1121.03 145.525 1135.28 300.96 1135.28 300.96L1074.25 354.417L1068.07 343.285Z" fill="#3A1D21"/>
<path d="M1085.22 341.54C1085.22 341.54 1060.89 285.674 1068.07 259.023" stroke="#271418" stroke-width="1.95653" stroke-linecap="round" stroke-linejoin="round"/>
<path d="M1105.08 327.455C1105.08 327.455 1087.32 286.161 1088.65 265.789" stroke="#271418" stroke-width="1.95653" stroke-linecap="round" stroke-linejoin="round"/>
<path d="M1091.9 253.223C1091.9 253.223 1074.69 277.321 1088.51 288.957C1106.1 303.792 1113.26 265.35 1112.27 268.585L1091.9 253.223Z" stroke="#BCB83D" stroke-width="0.978266" stroke-miterlimit="10"/>
<path d="M1085.91 284.461C1089.93 285 1095.17 283.73 1099.42 281.405C1102.27 279.835 1105.06 278.17 1107.97 276.708C1116.63 272.346 1132.29 264.113 1132 261.765C1131.76 259.787 1132 181.812 1132 181.812L1104.38 160.242C1104.38 160.242 1082.81 160.015 1072.09 172.933C1061.97 185.156 1047.26 244.665 1074.04 277.81C1077 281.464 1081.25 283.844 1085.91 284.461Z" fill="#B2775F"/>
<path d="M1109 272.472V310.387C1109 310.387 1108.67 315.288 1105.05 317.96C1101.43 320.633 1141.96 393.683 1141.96 393.683L1180.31 322.418L1170.95 249.32L1105.04 266.241L1108.99 269.836L1109 272.472Z" fill="#B2775F"/>
<path d="M1140.42 244.094C1140.42 244.094 1115.98 260.798 1124.94 276.449C1133.9 292.099 1154.28 265.448 1154.28 265.448L1140.42 244.094Z" stroke="#BCB83D" stroke-width="0.978266" stroke-miterlimit="10"/>
<path d="M1081.55 262.759C1081.55 262.759 1097.87 261.56 1101.03 256.875" stroke="#0D1C29" stroke-width="0.978266" stroke-linecap="round" stroke-linejoin="round"/>
<path d="M1079.28 230.84C1079.28 230.84 1075.95 239.6 1088.55 244.093" stroke="#0D1C29" stroke-width="0.978266" stroke-linecap="round" stroke-linejoin="round"/>
<path d="M1102.21 209.332C1101.53 208.903 1100.72 208.749 1099.94 208.901C1099.15 209.052 1098.46 209.498 1097.99 210.147C1097.37 210.89 1096.93 211.758 1096.68 212.692C1096.44 213.626 1096.4 214.602 1096.58 215.551C1097.52 219.446 1100.76 222.022 1102.57 221.543C1104.38 221.064 1105.53 216.102 1104.91 213.25C1104.75 212.448 1104.43 211.686 1103.96 211.012C1103.5 210.338 1102.9 209.766 1102.21 209.332Z" fill="black"/>
<path d="M1190.17 327.451C1190.17 327.451 1181.6 597.17 1186.37 611.874C1191.14 626.577 1199.05 672.665 1258.92 672.665L1230.55 549.741L1243.16 486.229L1258.74 551.37L1263.01 553.935L1258.34 567.116L1268.14 597.853C1268.14 597.853 1279.28 581.82 1311.57 587.164C1311.57 587.164 1307.98 530.376 1301.33 514.342C1294.68 498.309 1267.24 363.353 1267.24 363.353L1190.55 313.91L1190.17 327.451Z" fill="#28262E"/>
<path d="M1073.34 211.695C1072.77 211.354 1072.1 211.235 1071.44 211.362C1070.79 211.488 1070.21 211.85 1069.81 212.378C1069.22 213.067 1068.78 213.878 1068.54 214.755C1068.3 215.632 1068.26 216.551 1068.41 217.447C1069.27 221.042 1072.2 223.319 1073.82 222.864C1075.43 222.408 1076.5 217.927 1075.94 215.338C1075.78 214.583 1075.47 213.868 1075.02 213.24C1074.58 212.613 1074 212.086 1073.34 211.695Z" fill="black"/>
<path d="M1231.36 340.141C1231.36 340.141 1250.53 433.826 1186.12 483.269" stroke="#E2E2E2" stroke-width="0.244567" stroke-linecap="round" stroke-linejoin="round"/>
<path d="M1067.75 177.814C1067.75 177.814 1092.97 154.698 1106.66 169.15C1120.34 183.602 1126.04 235.717 1126.04 235.717C1126.04 235.717 1125.7 316.221 1165.13 331.931C1204.55 347.641 1201.21 406.754 1201.21 406.754C1201.21 406.754 1229.26 415.442 1233.95 343.243C1233.95 343.243 1237.78 337.06 1241.63 349.235C1241.63 349.235 1247.81 331.2 1235.78 318.174C1223.75 305.148 1215.57 234.016 1215.57 234.016C1215.57 234.016 1211.23 140.223 1127.04 147.856C1127.04 147.856 1077.93 149.534 1067.75 177.814Z" fill="#3A1D21"/>
<path d="M1090.44 203.215C1095.09 202.148 1099.71 201.154 1104.44 200.411C1105.63 200.214 1106.83 200.09 1108.03 200.039C1109.29 200.095 1110.52 200.44 1111.63 201.046C1113.75 202.139 1115.76 203.444 1117.62 204.94C1115.62 203.706 1113.5 202.675 1111.3 201.861C1110.28 201.444 1109.18 201.271 1108.08 201.357C1106.95 201.558 1105.83 201.822 1104.74 202.148C1100.25 203.454 1095.81 205.036 1091.41 206.654L1089.72 207.277L1088.61 203.61L1090.44 203.215Z" fill="#0D1C29"/>
<path d="M1074.15 205.324L1064.34 204.03L1064.83 203.838L1061.23 206.511L1063.92 202.916C1063.95 202.864 1064 202.822 1064.05 202.791C1064.11 202.759 1064.17 202.741 1064.23 202.736H1064.4L1074.3 201.789L1076.09 201.609V205.612L1074.15 205.324Z" fill="#0D1C29"/>
<path d="M1109.78 153.41C1109.78 153.41 1150.87 160.6 1158.91 217.844C1166.96 275.088 1164.7 304.519 1164.7 304.519C1164.7 304.519 1163.79 323.968 1167.48 329.983" stroke="#271418" stroke-width="1.95653" stroke-linecap="round" stroke-linejoin="round"/>
<path d="M1141.96 150.277C1141.96 150.277 1179.6 173.501 1184.5 219.289C1189.4 265.077 1189.85 306.934 1189.85 306.934L1190.61 349.954" stroke="#271418" stroke-width="1.95653" stroke-linecap="round" stroke-linejoin="round"/>
<path d="M1173.81 159.211C1173.81 159.211 1200.3 207.264 1198.97 239.079C1197.64 270.895 1189.84 310.092 1189.84 310.092" stroke="#271418" stroke-width="1.95653" stroke-linecap="round" stroke-linejoin="round"/>
<path d="M1109 310.387C1109 310.387 1095.01 335.552 1039.07 358.476C1038.37 358.756 1037.75 359.191 1037.26 359.748C1036.76 360.305 1036.39 360.968 1036.19 361.687C1032.37 375.324 1013.13 445.57 1016.34 468.062C1019.94 493.012 1015.99 531.753 1015.99 531.753C1015.99 531.753 999.867 601.688 1000.75 638.213L1030.16 654.246L1025.14 684.756H1047.41C1055.8 684.818 1064.11 683.024 1071.74 679.502C1079.36 675.981 1086.11 670.818 1091.51 664.384C1097.15 657.53 1101.54 648.962 1101.98 638.656C1103.32 607.859 1109 310.387 1109 310.387Z" fill="#28262E"/>
<path d="M1023.7 521.004C1023.7 521.004 1037.07 531.25 1047.31 535.264" stroke="#E2E2E2" stroke-width="0.244567" stroke-linecap="round" stroke-linejoin="round"/>
<path d="M1025.92 549.734C1025.92 549.734 1045.1 563.982 1047.31 561.981" stroke="#E2E2E2" stroke-width="0.244567" stroke-linecap="round" stroke-linejoin="round"/>
<path d="M1077.82 529.688L1088.51 543.049" stroke="#E2E2E2" stroke-width="0.244567" stroke-linecap="round" stroke-linejoin="round"/>
<path d="M1066.02 496.508L1084.73 525.016" stroke="#E2E2E2" stroke-width="0.244567" stroke-linecap="round" stroke-linejoin="round"/>
<path d="M1068.07 343.289C1068.07 343.289 1056.42 428.562 1105.77 474.218" stroke="#E2E2E2" stroke-width="0.244567" stroke-linecap="round" stroke-linejoin="round"/>
<path d="M1087.61 358.656L1066.75 368.003" stroke="#E2E2E2" stroke-width="0.244567" stroke-linecap="round" stroke-linejoin="round"/>
<path d="M1037.98 396.738C1037.98 396.738 1036.86 420.345 1043.76 425.906" stroke="#E2E2E2" stroke-width="0.244567" stroke-linecap="round" stroke-linejoin="round"/>
<path d="M1019.2 433.547C1019.2 433.547 1035.72 447.735 1045.75 447.292" stroke="#E2E2E2" stroke-width="0.244567" stroke-linecap="round" stroke-linejoin="round"/>
<path d="M1048.87 458.197C1048.87 458.197 1028.28 452.841 1017.41 444.836" stroke="#E2E2E2" stroke-width="0.244567" stroke-linecap="round" stroke-linejoin="round"/>
<path d="M1047.43 684.696H1025.14L1026.66 675.433C1026.66 675.433 1079.1 680.837 1090.46 665.559C1090.46 665.559 1088.73 667.38 1085.87 669.956C1075.33 679.462 1061.63 684.715 1047.43 684.696Z" fill="black"/>
<path d="M1035.5 639.714L1054.86 550.63L1045.74 458.203L1042.62 555.963L1035.5 639.714Z" fill="black"/>
<path d="M1256.93 387.816L1248.32 453.293" stroke="#E2E2E2" stroke-width="0.244567" stroke-linecap="round" stroke-linejoin="round"/>
<path d="M1290.4 540.039L1262.4 555.953" stroke="#E2E2E2" stroke-width="0.244567" stroke-linecap="round" stroke-linejoin="round"/>
<path d="M1298.09 552.406L1258.45 567.098" stroke="#E2E2E2" stroke-width="0.244567" stroke-linecap="round" stroke-linejoin="round"/>
<path d="M1265.01 458.195L1285.36 448.848" stroke="#E2E2E2" stroke-width="0.244567" stroke-linecap="round" stroke-linejoin="round"/>
<path d="M1262.4 447.292C1262.4 447.292 1276.35 434.961 1282.03 433.547" stroke="#E2E2E2" stroke-width="0.244567" stroke-linecap="round" stroke-linejoin="round"/>
<path d="M1166.01 574.461C1166.01 574.461 1173.59 564.658 1177.6 564.215" stroke="#E2E2E2" stroke-width="0.244567" stroke-linecap="round" stroke-linejoin="round"/>
<path d="M1180.27 548.957C1180.27 548.957 1163.34 557.525 1161.1 564.212" stroke="#E2E2E2" stroke-width="0.244567" stroke-linecap="round" stroke-linejoin="round"/>
<path d="M1047.31 771.215C1047.31 771.215 1068.57 768.878 1068.88 768.207" stroke="#E2E2E2" stroke-width="0.244567" stroke-linecap="round" stroke-linejoin="round"/>
<path d="M1036.62 760.853C1036.62 760.853 1055.88 762.195 1065.89 752.465" stroke="#E2E2E2" stroke-width="0.244567" stroke-linecap="round" stroke-linejoin="round"/>
<path d="M1219.57 736.805C1219.57 736.805 1241.62 742.796 1243.29 749.83" stroke="#E2E2E2" stroke-width="0.244567" stroke-linecap="round" stroke-linejoin="round"/>
<path d="M1222.25 724.777C1222.25 724.777 1240.62 733.166 1240.96 736.761" stroke="#E2E2E2" stroke-width="0.244567" stroke-linecap="round" stroke-linejoin="round"/>
<path d="M1090.46 787.242C1090.46 787.242 1205.21 778.566 1211.23 780.232" stroke="#E2E2E2" stroke-width="0.244567" stroke-linecap="round" stroke-linejoin="round"/>
<path d="M1201.54 766.207C1201.54 766.207 1103.66 775.23 1101.31 772.894" stroke="#E2E2E2" stroke-width="0.244567" stroke-linecap="round" stroke-linejoin="round"/>
<path d="M1000.75 638.148L996.307 749.497L985.953 819.215H1022.74L1017.12 766.202C1017.12 766.202 1034.16 696.052 1030.16 654.182L1000.75 638.148Z" fill="#B2775F"/>
<path d="M360.109 658.594L373.16 710.373L394.059 691.895L360.109 658.594Z" fill="white" stroke="#0D1C29" stroke-width="0.244567" stroke-miterlimit="10"/>
<path d="M108.066 695.559L124.616 709.532L144.809 666.32L108.066 695.559Z" fill="white" stroke="#0D1C29" stroke-width="0.244567" stroke-miterlimit="10"/>
<path d="M148.535 660.868L110.57 728.202L131.494 819.311H242.787V766.021H244.944L262.189 819.311H375.543V707.579L355.087 642.594H154.611L148.535 660.868Z" fill="#4A538B" stroke="black" stroke-width="0.489133" stroke-miterlimit="10"/>
<path d="M347.284 642.595H173.16L173.735 476.807L194.887 318.244L208.237 307.363L255.069 321.887L287.329 320.677L318.991 322.834L351.215 353.774L342.479 492.133L324.132 541.408L347.284 642.595Z" fill="white"/>
<path d="M305.848 563.988C305.848 563.988 331.421 667.56 363.777 664.252L354.07 639.087L305.848 563.988Z" fill="black"/>
<path d="M207.675 561.059C207.675 561.059 199.706 626.02 176.517 654.073C174.039 657.119 170.843 659.502 167.216 661.006C163.588 662.51 159.644 663.088 155.737 662.689C153.272 662.43 150.853 661.837 148.547 660.927" fill="black"/>
<path d="M309.406 210.734H301.832V214.222H309.406V210.734Z" fill="#3D2C2E"/>
<path d="M207.757 215.371L211.508 192.819C213.701 183.64 216.925 175.695 221.263 170.818C229.412 161.662 238.04 154.544 260.103 156.342C283.758 158.283 294.987 171.788 299.625 179.769C301.45 182.94 302.463 186.513 302.573 190.171L304.371 241.555V263.532L291.009 275.228L291.835 321.962L271.799 339.506L217.296 299.41L217.093 244.742C217.093 244.742 199.692 248.817 195.127 224.371C194.643 221.992 194.894 219.522 195.846 217.289C197.308 214.053 200.579 210.854 207.757 215.371Z" fill="#CA876F"/>
<path d="M197.739 224.841C196.265 213.685 209.147 224.841 209.147 224.841H197.739Z" fill="#0D1C29"/>
<path d="M210.704 230.169C211.902 232.062 213.221 231.847 213.173 233.572C213.125 235.298 210.536 232.374 210.536 232.374C206.366 228.192 209.146 227.641 209.146 227.641C209.146 227.641 210.069 229.186 210.704 230.169Z" fill="#0D1C29"/>
<path d="M221.262 219.883L225.025 271.051L285.998 293.184L306.322 267.72L303.998 230.871L297.97 266.606L280.15 277.319L266.788 273.28L245.062 265.144L221.262 219.883Z" fill="#735154"/>
<path d="M276.507 221.328C276.507 221.328 281.001 231.094 273.199 230.915" stroke="#0D1C29" stroke-width="0.978266" stroke-linecap="round" stroke-linejoin="round"/>
<path d="M256.41 242.547L277.921 250.348L292.302 242.547H256.41Z" fill="#F7FBF8"/>
<path d="M245.062 265.138V241.399L277.227 234.113L298.941 245.162L297.971 266.6L294.352 247.858L276.388 243.065L249.628 244.323L245.062 265.138Z" fill="#735154"/>
<path d="M261.352 212.87C263.174 220.695 257.182 220.492 257.182 220.492C257.182 220.492 252.065 221.319 251.19 215.267C250.315 209.215 255.468 207.957 255.468 207.957C255.468 207.957 259.998 207.022 261.352 212.87Z" fill="#533E47"/>
<path d="M292.674 214.425C291.943 221.351 287.09 219.482 287.09 219.482C287.09 219.482 282.656 218.727 283.687 213.49C284.717 208.253 289.271 208.697 289.271 208.697C289.271 208.697 293.214 209.236 292.674 214.425Z" fill="#533E47"/>
<path d="M239.477 203.742L247.014 198.266L262.785 201.19" stroke="#735154" stroke-width="1.95653" stroke-linecap="round" stroke-linejoin="round"/>
<path d="M300.035 202.176L291.934 194.375L276.176 197.287" stroke="#735154" stroke-width="1.95653" stroke-linecap="round" stroke-linejoin="round"/>
<path d="M216.109 219.875L227.517 200.474L229.195 180.846C229.195 180.846 235.834 170.133 245.972 175.046C256.11 179.959 279.682 178.114 283.493 177.503C287.353 176.638 291.152 175.521 294.866 174.159C294.866 174.159 296.987 175.358 302.643 193.057L302.847 186.298C303.138 178.372 300.788 170.573 296.166 164.126C291.544 157.68 284.911 152.952 277.31 150.684C269.177 148.501 260.792 147.401 252.371 147.413C245.433 147.317 238.578 150.049 232.502 153.776C225.843 157.912 220.269 163.581 216.248 170.31C212.226 177.04 209.873 184.634 209.386 192.458L207.84 214.962C207.84 214.962 209.757 212.506 216.109 219.875Z" fill="#735154"/>
<path d="M203.387 210.734H232.256V214.222L205.759 214.257L203.387 213.383V211.753V210.734Z" fill="#3D2C2E"/>
<path d="M239.368 209.871H232.25V215.096H239.368V209.871Z" fill="#3D2C2E"/>
<path d="M239.262 209.211C238.472 211.233 238.168 213.412 238.376 215.573C238.584 217.734 239.298 219.816 240.461 221.65C241.135 222.76 242.022 223.727 243.071 224.494C244.12 225.261 245.31 225.813 246.572 226.119C251.366 227.318 260.318 228.708 266.777 225.257C267.97 224.599 268.944 223.608 269.581 222.405C271.213 219.238 271.912 215.672 271.594 212.123C271.505 210.891 271.064 209.711 270.325 208.721C269.586 207.732 268.58 206.975 267.424 206.539C260.342 203.821 252.656 203.072 245.182 204.37C243.862 204.598 242.623 205.164 241.586 206.012C240.549 206.861 239.748 207.962 239.262 209.211V209.211Z" stroke="#3D2C2E" stroke-width="0.978266" stroke-miterlimit="10"/>
<path d="M308.436 209.207C309.228 211.229 309.532 213.408 309.324 215.57C309.116 217.731 308.401 219.812 307.238 221.646C306.561 222.757 305.672 223.723 304.621 224.49C303.57 225.257 302.379 225.809 301.114 226.115C296.321 227.314 287.369 228.704 280.922 225.253C279.763 224.583 278.822 223.593 278.213 222.401C276.548 219.243 275.816 215.677 276.104 212.119C276.193 210.894 276.629 209.719 277.361 208.732C278.094 207.745 279.092 206.987 280.239 206.547C287.325 203.829 295.015 203.079 302.492 204.378C303.816 204.602 305.059 205.164 306.1 206.01C307.142 206.856 307.946 207.958 308.436 209.207V209.207Z" stroke="#3D2C2E" stroke-width="0.978266" stroke-miterlimit="10"/>
<path d="M271.656 209.869C272.378 209.564 273.154 209.406 273.939 209.406C274.723 209.406 275.499 209.564 276.222 209.869L276.102 212.11C274.903 210.528 272.003 212.11 272.003 212.11L271.32 210.133L271.656 209.869Z" fill="#3D2C2E"/>
<path d="M305.615 314.246L309.402 321.975L291.522 346.613L273.199 321.4" stroke="black" stroke-width="0.978266" stroke-miterlimit="10"/>
<path d="M208.234 307.363L249.626 343.457L273.198 321.396" stroke="black" stroke-width="0.978266" stroke-miterlimit="10"/>
<path d="M211.773 515.057C211.125 513.763 211.773 393.02 211.773 393.02L208.237 307.363C208.237 307.363 201.047 318.675 123.68 345.53C123.68 345.53 116.801 347.663 115.579 364.943C114.129 385.542 88.0163 511.618 88.0163 511.618L72.0898 538.544L77.2428 544.848L72.0898 552.289L96.7284 696.675H111.109L144.807 666.286L129.911 576.903L137.641 556.531L127.539 549.006L127.97 545.147L132.272 539.982L130.81 536.543L144.783 490.348L143.92 483.901L146.497 484.332L152.729 532.265L147.791 542.367L155.089 556.975L148.786 655.932L148.486 660.869C148.486 660.869 197.164 615.525 202.629 582.091C202.629 582.091 211.725 554.374 211.725 516.124" fill="#4A538B"/>
<path d="M211.773 515.057C211.125 513.763 211.773 393.02 211.773 393.02L208.237 307.363C208.237 307.363 201.047 318.675 123.68 345.53C123.68 345.53 116.801 347.663 115.579 364.943C114.129 385.542 88.0163 511.618 88.0163 511.618L72.0898 538.544L77.2428 544.848L72.0898 552.289L96.7284 696.675H111.109L144.807 666.286L129.911 576.903L137.641 556.531L127.539 549.006L127.97 545.147L132.272 539.982L130.81 536.543L144.783 490.348L143.92 483.901L146.497 484.332L152.729 532.265L147.791 542.367L155.089 556.975L148.786 655.932L148.486 660.869C148.486 660.869 197.164 615.525 202.629 582.091C202.629 582.091 211.725 554.374 211.725 516.124" stroke="black" stroke-width="0.489133" stroke-miterlimit="10"/>
<path d="M137.558 514.08L141.609 430.82L146.822 487.13L144.066 485.356L144.737 490.353L137.558 514.08Z" fill="black"/>
<path d="M279.887 642.594H230.609V671.198H279.887V642.594Z" fill="#F2C794"/>
<path d="M305.848 314.727V562.78C305.848 562.78 314.164 607.909 359.703 653.673L342.422 539.76L351.446 532.247L362.615 478.538L379.596 523.223L374.646 536.549L386.63 544.062L379.116 552.654L385.564 559.101L359.056 659.437L398.027 700.18L434.697 564.386L430.682 558.658L440.425 531.156L428.441 519.7L431.306 516.836L387.181 346.674L305.848 314.727Z" fill="#4A538B" stroke="black" stroke-width="0.489133" stroke-miterlimit="10"/>
<path d="M111.523 392.438L127.977 406.278L138.786 415.361" stroke="black" stroke-width="0.978266" stroke-miterlimit="10"/>
<path d="M109.164 405.535L130.615 408.495" stroke="black" stroke-width="0.978266" stroke-miterlimit="10"/>
<path d="M105.117 427.004H139.93" stroke="black" stroke-width="0.978266" stroke-miterlimit="10"/>
<path d="M146.449 484.336L133.566 342.047" stroke="black" stroke-width="0.978266" stroke-miterlimit="10"/>
<path d="M102.41 527.941H119.894C119.894 527.941 125.024 540.344 129.613 543.172" stroke="black" stroke-width="0.978266" stroke-miterlimit="10"/>
<path d="M87.7852 549.427L116.007 541.41C116.007 541.41 126.181 550.338 133.347 553.322" stroke="black" stroke-width="0.978266" stroke-miterlimit="10"/>
<path d="M168.299 579.219C168.299 579.219 161.54 565.378 154.613 563.988" stroke="black" stroke-width="0.978266" stroke-miterlimit="10"/>
<path d="M173.161 556.041C173.161 556.041 156.168 537.18 151.062 535.586" stroke="black" stroke-width="0.978266" stroke-miterlimit="10"/>
<path d="M188.275 319.816L173.738 343.459L186.058 351.189" stroke="black" stroke-width="0.978266" stroke-miterlimit="10"/>
<path d="M208.239 330.273L173.738 362.077L211.775 469.507" stroke="black" stroke-width="0.978266" stroke-miterlimit="10"/>
<path d="M324.133 321.891L342.48 342.31L327.584 357.205" stroke="black" stroke-width="0.978266" stroke-miterlimit="10"/>
<path d="M291.308 337.444L274.363 353.777L302.896 611.92L276.22 649.979L245.062 611.92L263.793 351.189L249.628 330.278L256.411 319.816L283.53 321.89L291.308 337.444Z" fill="#BA4F4F"/>
<path d="M291.522 303.914L305.615 314.244V327.749L291.522 346.61L273.199 321.398L291.522 303.914Z" fill="white"/>
<path d="M305.848 339.539L342.482 372.697C342.482 372.697 350.212 377.862 345.059 384.68C339.906 391.498 305.848 471.199 305.848 471.199" stroke="black" stroke-width="0.978266" stroke-miterlimit="10"/>
<path d="M386.851 346.492L352.805 523.521L329.473 535.181" stroke="black" stroke-width="0.978266" stroke-miterlimit="10"/>
<path d="M333.301 551.724L342.96 544.594" stroke="black" stroke-width="0.978266" stroke-miterlimit="10"/>
<path d="M410.38 531.668L386.664 544.059" stroke="black" stroke-width="0.978266" stroke-miterlimit="10"/>
<path d="M385.598 559.099L407.228 550.004" stroke="black" stroke-width="0.978266" stroke-miterlimit="10"/>
<path d="M410.379 512.758L428.426 519.636" stroke="black" stroke-width="0.978266" stroke-miterlimit="10"/>
<path d="M410.383 438.281L367.805 447.58" stroke="black" stroke-width="0.978266" stroke-miterlimit="10"/>
<path d="M404.99 415.352L369.59 438.288" stroke="black" stroke-width="0.978266" stroke-miterlimit="10"/>
<path d="M389.034 353.819L373.156 442.926L374.965 511.087L362.047 477.606L387.452 347.707L389.034 353.819Z" fill="black"/>
<path d="M144.387 748.41L159.426 819.315" stroke="black" stroke-width="0.978266" stroke-miterlimit="10"/>
<path d="M340.336 764.305L347.215 819.308" stroke="black" stroke-width="0.978266" stroke-miterlimit="10"/>
<path d="M137.512 715.752L178.101 642.594" stroke="black" stroke-width="0.978266" stroke-miterlimit="10"/>
<path d="M333.301 672.359L373.159 718.771" stroke="black" stroke-width="0.978266" stroke-miterlimit="10"/>
<path d="M187.925 664.318L151.062 660.316L170.968 643.3L187.925 643V662.76" fill="black"/>
<path d="M340.336 700.117L375.544 735.084" stroke="black" stroke-width="0.978266" stroke-miterlimit="10"/>
<path d="M262.187 677.07V733.799L243.049 750.12L239.777 681.804" stroke="black" stroke-width="0.978266" stroke-miterlimit="10"/>
<path d="M219.156 722.612C219.156 722.612 306.386 712.738 309.825 715.746" stroke="black" stroke-width="0.978266" stroke-miterlimit="10"/>
<path d="M211.773 713.598L283.185 702.43C283.185 702.43 293.503 700.285 296.079 702.43" stroke="black" stroke-width="0.978266" stroke-miterlimit="10"/>
<path d="M293.077 741.094L250.715 783.85L244.951 766.019H242.794V788.799L227.754 753.125L293.077 741.094Z" fill="black"/>
<path d="M328.301 642.594V664.319L358.164 660.892L347.283 642.594H328.301Z" fill="black"/>
<path d="M317.999 665.757V642.594H279.891V669.233C279.891 669.233 315.135 668.046 317.999 665.757Z" fill="black"/>
<path d="M230.61 669.197V642.594H198.254V665.793C198.254 665.793 225.745 670.059 230.61 669.197Z" fill="black"/>
<path d="M359.094 659.426L385.602 700.109H398.065L359.094 659.426Z" fill="black"/>
<path d="M249.626 343.454L273.198 321.392L217.821 290.164L208.234 307.36L249.626 343.454Z" fill="white"/>
<path d="M815.855 595.641L793.973 643.813L818.408 649.865L820.313 613.292L815.855 595.641Z" fill="#112430"/>
<path d="M807.141 724.484L828.832 716.911L788.591 655.017L739.277 579.199L767.044 649.864H784.061L808.508 699.044L807.141 724.484Z" fill="#112430"/>
<path d="M575.965 717.565C575.965 717.565 582.328 724.695 589.291 724.24C596.253 723.785 600.651 714.581 600.651 714.581L579.452 697.445L575.965 717.565Z" fill="#112430"/>
<path d="M816.572 622.754L807.141 819.327H700.402L695.884 777.781L690.815 775.828L682.833 819.327H586.64L578.73 622.754H816.572Z" fill="#846C67" stroke="black" stroke-width="0.244567" stroke-miterlimit="10"/>
<path d="M665.77 318.259V265.641H741.555V316.641L703.662 343.652L665.77 318.259Z" fill="#A86D55"/>
<path d="M680.714 336.688L689.199 347.988L680.127 579.193L709.979 625.999L732.82 579.193L708.385 350.013L719.29 339.108L702.345 319.516H679.504L680.714 336.688Z" fill="#BA4F4F"/>
<path d="M741.556 302.25L702.345 317.996L697.887 319.817L722.525 356.57L749.177 329.404L741.556 316.642V302.25Z" fill="white"/>
<path d="M697.887 319.82L722.525 356.573L749.177 329.407L741.556 316.645" stroke="black" stroke-width="0.244567" stroke-miterlimit="10"/>
<path d="M665.769 295.023V318.259L651.844 326.18L671.233 351.62L697.885 319.817L665.769 295.023Z" fill="white"/>
<path d="M665.769 318.266L651.844 326.187L671.233 351.627L697.885 319.823" stroke="black" stroke-width="0.244567" stroke-miterlimit="10"/>
<path d="M641.813 622.754V655.336C641.813 655.336 582.685 651.214 579.725 647.367L578.73 622.754H641.813Z" fill="#112430"/>
<path d="M665.771 579.201C665.771 579.201 662.284 336.396 665.771 318.266C665.771 318.266 665.4 321.333 568.032 351.627C568.032 351.627 501.39 473.856 491.695 552.946L547.839 658.398L595.499 618.015L584.989 602.173L550.667 550.525L561.573 542.676L554.706 534.779L589.842 473.796C589.842 473.796 596.373 562.616 584.701 615.45L656.484 595.594L665.771 579.201Z" fill="#846C67" stroke="black" stroke-width="0.244567" stroke-miterlimit="10"/>
<path d="M587.28 605.598C561.287 662.699 576.207 716.911 576.207 716.911C576.207 716.911 661.687 618.361 665.774 579.199" fill="#846C67"/>
<path d="M587.28 605.598C561.287 662.699 576.207 716.911 576.207 716.911C576.207 716.911 661.687 618.361 665.774 579.199" stroke="black" stroke-width="0.244567" stroke-miterlimit="10"/>
<path d="M625.025 640.595L587.623 639.469L557.664 661.35L558.647 665.772L591.314 702.033L623.383 659.637L632.479 663.232C632.479 663.232 650.454 667.018 654.049 661.83C654.092 661.767 654.121 661.696 654.132 661.622C654.143 661.547 654.136 661.471 654.113 661.399C654.09 661.327 654.051 661.261 653.998 661.207C653.945 661.153 653.881 661.112 653.81 661.087C650.011 659.541 627.589 649.786 625.025 640.595Z" fill="#A86D55"/>
<path d="M549.887 656.605L558.743 665.868L587.624 639.469L579.103 631.848L549.887 656.605Z" fill="white" stroke="black" stroke-width="0.244567" stroke-miterlimit="10"/>
<path d="M756.453 622.754V654.21C756.453 654.21 812.777 652.856 815.629 647.823L816.576 622.754H756.453Z" fill="#112430"/>
<path d="M817.774 605.594C806.102 552.76 815.209 473.778 815.209 473.778L850.346 534.761L843.479 542.658L854.384 550.507L820.063 602.155L809.553 617.949L857.213 658.333L913.356 552.88C903.662 473.73 837.02 351.561 837.02 351.561C738.07 323.496 741.557 316.582 741.557 316.582L739.436 560.957C739.328 572.815 742.712 584.442 749.167 594.39L828.823 716.871C843.958 678.405 817.75 605.558 817.75 605.558" fill="#846C67"/>
<path d="M817.774 605.594C806.102 552.76 815.209 473.778 815.209 473.778L850.346 534.761L843.479 542.658L854.384 550.507L820.063 602.155L809.553 617.949L857.213 658.333L913.356 552.88C903.662 473.73 837.02 351.561 837.02 351.561C738.07 323.496 741.557 316.582 741.557 316.582L739.436 560.957C739.328 572.815 742.712 584.442 749.167 594.39L828.823 716.871C843.958 678.405 817.75 605.558 817.75 605.558" stroke="black" stroke-width="0.244567" stroke-miterlimit="10"/>
<path d="M578.73 364.312C578.73 364.312 604.987 427.512 589.839 473.756" stroke="black" stroke-width="0.978266" stroke-linecap="round" stroke-linejoin="round"/>
<path d="M569.852 444.909C569.852 444.909 532.175 425.568 530.605 429.211" stroke="black" stroke-width="0.978266" stroke-linecap="round" stroke-linejoin="round"/>
<path d="M569.851 432.804C569.851 432.804 540.275 416.854 535.098 419.071" stroke="black" stroke-width="0.978266" stroke-linecap="round" stroke-linejoin="round"/>
<path d="M521.391 554.555C521.391 554.555 547.839 549.558 561.572 542.668" stroke="black" stroke-width="0.978266" stroke-linecap="round" stroke-linejoin="round"/>
<path d="M517.75 528.48C517.75 528.48 550.022 529.355 554.708 534.748" stroke="black" stroke-width="0.978266" stroke-linecap="round" stroke-linejoin="round"/>
<path d="M521.391 516.972C521.391 516.972 551.47 515.977 561.572 522.844" stroke="black" stroke-width="0.978266" stroke-linecap="round" stroke-linejoin="round"/>
<path d="M615.891 485.496C615.891 485.496 599.282 532.746 594.32 538.222" stroke="black" stroke-width="0.978266" stroke-linecap="round" stroke-linejoin="round"/>
<path d="M640.117 505.492C640.117 505.492 597.551 561.442 592.781 572.838" stroke="black" stroke-width="0.978266" stroke-linecap="round" stroke-linejoin="round"/>
<path d="M662.43 346.168L633.465 387.966C633.465 387.966 624.981 391.561 630.433 407.954C635.886 424.347 663.844 485.497 663.844 485.497" stroke="black" stroke-width="0.978266" stroke-miterlimit="10"/>
<path d="M646.23 326.449L628.602 346.174L646.23 369.553" stroke="black" stroke-width="0.978266" stroke-miterlimit="10"/>
<path d="M774.844 637.587L812.257 636.461L842.217 658.342L841.234 662.764L808.554 699.038L776.498 656.629L767.39 660.224C767.39 660.224 749.546 664.01 745.903 658.858C745.861 658.79 745.834 658.714 745.824 658.635C745.815 658.556 745.823 658.476 745.848 658.4C745.873 658.324 745.915 658.255 745.97 658.198C746.025 658.14 746.092 658.095 746.167 658.067C750.002 656.473 772.304 646.755 774.844 637.587Z" fill="#A86D55"/>
<path d="M854.213 655.808L844.59 665.873L812.258 636.467L820.85 627.539L854.213 655.808Z" fill="white" stroke="black" stroke-width="0.244567" stroke-miterlimit="10"/>
<path d="M753.011 750.422L749.176 819.326" stroke="black" stroke-width="0.978266" stroke-miterlimit="10"/>
<path d="M637.418 740.727L646.226 819.325" stroke="black" stroke-width="0.978266" stroke-miterlimit="10"/>
<path d="M758.82 724.479C758.82 724.479 811.848 721.147 812.256 712.699" stroke="black" stroke-width="0.978266" stroke-linecap="round" stroke-linejoin="round"/>
<path d="M773.207 732.661L811.531 727.832" stroke="black" stroke-width="0.978266" stroke-linecap="round" stroke-linejoin="round"/>
<path d="M583.156 716.039C583.156 716.039 606.225 732.193 618.64 733.81" stroke="black" stroke-width="0.978266" stroke-linecap="round" stroke-linejoin="round"/>
<path d="M663.84 740.733C663.84 740.733 723.123 738.336 732.818 732.656L693.44 780.038L663.84 740.733Z" fill="#112430"/>
<path d="M741.555 684.188C741.555 684.188 754.941 695.5 758.823 695.5" stroke="black" stroke-width="0.978266" stroke-linecap="round" stroke-linejoin="round"/>
<path d="M739.277 695.508C739.277 695.508 757.373 701.967 758.823 705.202" stroke="black" stroke-width="0.978266" stroke-linecap="round" stroke-linejoin="round"/>
<path d="M637.418 695.51C637.418 695.51 686.623 670.465 703.664 676.121" stroke="black" stroke-width="0.978266" stroke-linecap="round" stroke-linejoin="round"/>
<path d="M717.314 622.754H676.078V655.336H717.314V622.754Z" fill="#F5CA9A"/>
<path d="M665.768 622.754H657.703V655.336H665.768V622.754Z" fill="#112430"/>
<path d="M745.771 622.754H732.816V654.21H745.771V622.754Z" fill="#112430"/>
<path d="M680.133 673.669L686.412 755.815L709.984 726.228L708.031 672.016" stroke="black" stroke-width="0.978266" stroke-miterlimit="10"/>
<path d="M566.75 642.322L595.499 617.96L585.768 603.316" fill="#846C67"/>
<path d="M566.75 642.322L595.499 617.96L585.768 603.316" stroke="black" stroke-width="0.244567" stroke-miterlimit="10"/>
<path d="M648.9 210.198C648.727 202.108 650.253 194.072 653.378 186.609C656.503 179.145 661.158 172.42 667.043 166.866C671.941 162.157 677.813 158.579 684.244 156.387C690.676 154.194 697.51 153.439 704.265 154.176C716.777 155.195 728.589 160.371 737.819 168.88C743.56 174.259 748.143 180.753 751.287 187.965C754.432 195.176 756.072 202.954 756.107 210.821L756.586 247.969L723.858 275.83L683.221 276.345L649.379 247.418L648.9 210.198Z" fill="#A86D55"/>
<path d="M649.02 219.577L649.499 257.66C649.573 264.919 651.487 272.042 655.063 278.36C658.638 284.679 663.758 289.987 669.943 293.789C675.468 297.157 681.244 299.985 686.073 300.8C700.142 303.196 717.339 300.404 717.339 300.404C723.935 297.946 730.388 295.121 736.669 291.944C742.763 288.827 747.865 284.068 751.397 278.205C754.929 272.341 756.751 265.607 756.658 258.762L756.142 218.211L728.316 259.985L723.798 275.826L703.234 270.59L683.161 276.342L679.986 257.84L649.02 219.577Z" fill="#0D0F17"/>
<path d="M704.287 254.909L717.997 250.295L702.705 246.652L686.527 251.781L704.287 254.909Z" fill="white"/>
<path d="M678.461 254.907L704.286 242.504L731.693 254.907L705.077 248.711L678.461 254.907Z" fill="#0D0F17"/>
<path d="M701.387 223.641C701.387 223.641 715.611 238.907 701.387 237.29" stroke="#0D1C29" stroke-width="0.978266" stroke-linecap="round" stroke-linejoin="round"/>
<path d="M649.018 219.578L655.538 196.942V186.493C655.538 186.493 696.989 133.287 738.226 178.476L742.348 189.932C742.348 189.932 757.376 203.114 756.141 218.212L755.29 183.773C755.29 183.773 744.194 152.269 701.867 147.703C673.945 144.695 658.354 165.834 650.972 180.573C647.241 188.062 645.859 196.503 647.005 204.791L649.018 219.578Z" fill="#0D0F17"/>
<path d="M674.746 211.407C674.746 211.407 671.403 218.357 678.617 218.357C682.212 218.357 683.638 216.62 684.154 214.882C684.377 214.048 684.423 213.176 684.287 212.323C684.15 211.47 683.835 210.656 683.363 209.933L683.255 209.729C682.906 209.15 682.431 208.658 681.864 208.29C681.297 207.922 680.654 207.687 679.983 207.604C679.313 207.521 678.632 207.592 677.992 207.81C677.353 208.029 676.772 208.39 676.292 208.867C675.618 209.606 675.093 210.469 674.746 211.407Z" fill="#0D0F17"/>
<path d="M716.153 211.404C716.153 211.404 712.809 218.354 720.023 218.354C723.618 218.354 725.044 216.616 725.56 214.879C725.782 214.045 725.828 213.174 725.694 212.322C725.56 211.469 725.249 210.654 724.781 209.93L724.637 209.714C724.289 209.135 723.813 208.643 723.246 208.274C722.679 207.906 722.036 207.672 721.366 207.589C720.695 207.505 720.014 207.576 719.375 207.795C718.735 208.013 718.154 208.375 717.674 208.851C717.008 209.596 716.491 210.463 716.153 211.404Z" fill="#0D0F17"/>
<path d="M826.316 364.312C826.316 364.312 800.06 427.512 815.207 473.756" stroke="black" stroke-width="0.978266" stroke-linecap="round" stroke-linejoin="round"/>
<path d="M835.199 444.909C835.199 444.909 872.876 425.568 874.446 429.211" stroke="black" stroke-width="0.978266" stroke-linecap="round" stroke-linejoin="round"/>
<path d="M835.199 432.804C835.199 432.804 864.775 416.854 869.952 419.071" stroke="black" stroke-width="0.978266" stroke-linecap="round" stroke-linejoin="round"/>
<path d="M883.654 554.555C883.654 554.555 857.206 549.558 843.473 542.668" stroke="black" stroke-width="0.978266" stroke-linecap="round" stroke-linejoin="round"/>
<path d="M887.302 528.48C887.302 528.48 855.029 529.355 850.344 534.748" stroke="black" stroke-width="0.978266" stroke-linecap="round" stroke-linejoin="round"/>
<path d="M883.654 516.972C883.654 516.972 853.575 515.977 843.473 522.844" stroke="black" stroke-width="0.978266" stroke-linecap="round" stroke-linejoin="round"/>
<path d="M789.156 485.496C789.156 485.496 805.766 532.746 810.787 538.222" stroke="black" stroke-width="0.978266" stroke-linecap="round" stroke-linejoin="round"/>
<path d="M764.926 505.492C764.926 505.492 807.492 561.442 812.262 572.838" stroke="black" stroke-width="0.978266" stroke-linecap="round" stroke-linejoin="round"/>
<path d="M742.625 346.168L771.59 387.966C771.59 387.966 780.074 391.561 774.622 407.954C769.169 424.347 741.211 485.497 741.211 485.497" stroke="black" stroke-width="0.978266" stroke-miterlimit="10"/>
<path d="M758.82 326.449L776.448 346.174L758.82 369.553" stroke="black" stroke-width="0.978266" stroke-miterlimit="10"/>
<path d="M827.487 633.159L809.547 617.964L817.768 605.598" fill="#846C67"/>
<path d="M827.487 633.159L809.547 617.964L817.768 605.598" stroke="black" stroke-width="0.244567" stroke-miterlimit="10"/>
<path d="M689.665 197.195L670.407 200.79L670.683 200.598L665.77 206.338L669.868 199.987L669.952 199.867L670.156 199.807L688.778 193.707L690.492 193.156L691.439 196.871L689.665 197.195Z" fill="black"/>
<path d="M711.93 194.819L732.195 198.09L732.482 198.222L738.091 203.974L731.811 198.965L732.099 199.097L711.583 198.402L709.785 198.342L710.157 194.531L711.93 194.819Z" fill="black"/>
<g filter="url(#filter1_d_1_60)">
<path d="M691.151 127.827L680.801 109.299L702.021 109.6L691.151 127.827Z" fill="#D9D9D9"/>
<rect x="674" y="28" width="215.648" height="86.5858" rx="6.53478" fill="white"/>
<path d="M696.545 67.5039V56.068H698.032V61.1488H703.358V56.068H704.844V67.5039H703.358V62.4885H698.032V67.5039H696.545ZM708.095 58.682C707.757 58.682 707.48 58.573 707.262 58.3552C707.044 58.1374 706.935 57.8651 706.935 57.5384C706.935 57.2116 707.044 56.9393 707.262 56.7215C707.48 56.4928 707.757 56.3784 708.095 56.3784C708.422 56.3784 708.694 56.4928 708.912 56.7215C709.13 56.9393 709.239 57.2116 709.239 57.5384C709.239 57.8651 709.13 58.1374 708.912 58.3552C708.694 58.573 708.422 58.682 708.095 58.682ZM707.376 67.5039V59.9726H708.797V67.5039H707.376ZM711.759 69.4643C711.542 69.4643 711.356 69.448 711.204 69.4153V68.7292C711.335 68.751 711.536 68.7619 711.808 68.7619C712.255 68.7619 712.56 68.5767 712.723 68.2064C712.865 67.9777 712.936 67.6836 712.936 67.3242C712.794 67.4985 712.571 67.5856 712.266 67.5856C711.95 67.5856 711.689 67.4821 711.482 67.2752C711.275 67.0683 711.171 66.796 711.171 66.4583C711.171 66.1207 711.28 65.843 711.498 65.6252C711.727 65.4073 712.01 65.2984 712.348 65.2984C712.74 65.2984 713.083 65.4618 713.377 65.7885C713.682 66.1044 713.834 66.5618 713.834 67.1608C713.834 67.847 713.649 68.4024 713.279 68.8272C712.919 69.252 712.413 69.4643 711.759 69.4643ZM720.235 67.5039V59.9726H721.656V61.3449C721.809 60.8983 722.081 60.528 722.473 60.234C722.865 59.929 723.345 59.7765 723.911 59.7765C725.207 59.7765 726.013 60.3156 726.329 61.3939C726.503 60.9256 726.808 60.5389 727.244 60.234C727.679 59.929 728.18 59.7765 728.747 59.7765C730.555 59.7765 731.459 60.7622 731.459 62.7335V67.5039H730.037V63.0112C730.037 61.6716 729.493 61.0018 728.404 61.0018C727.173 61.0018 726.557 61.8622 726.557 63.583V67.5039H725.136V63.1093C725.136 61.7043 724.597 61.0018 723.519 61.0018C722.931 61.0018 722.473 61.2196 722.147 61.6553C721.82 62.08 721.656 62.7226 721.656 63.583V67.5039H720.235ZM739.219 59.9726H740.64V67.6509C740.64 68.8381 740.297 69.7421 739.611 70.3629C739.001 70.9074 738.179 71.1797 737.144 71.1797C736.055 71.1797 735.206 70.9183 734.596 70.3955C734.04 69.9272 733.757 69.2792 733.746 68.4514H735.184C735.238 69.4752 735.886 69.9871 737.128 69.9871C738.522 69.9871 739.219 69.1757 739.219 67.5529V66.1479C738.718 67.1826 737.847 67.6999 736.605 67.6999C735.658 67.6999 734.944 67.4113 734.465 66.8341C733.986 66.246 733.746 65.4563 733.746 64.4652V59.9726H735.168V64.1712C735.168 64.9009 735.309 65.4618 735.592 65.8539C735.886 66.2351 736.382 66.4257 737.079 66.4257C737.765 66.4257 738.293 66.1806 738.664 65.6905C739.034 65.1895 739.219 64.5741 739.219 63.8444V59.9726ZM747.229 67.5039V59.9726H748.651V61.3612C748.858 60.8711 749.184 60.4845 749.631 60.2013C750.088 59.9181 750.638 59.7765 751.281 59.7765C753.154 59.7765 754.091 60.8058 754.091 62.8642V67.5039H752.67V63.485C752.67 62.6355 752.517 62.0092 752.212 61.6063C751.918 61.2033 751.439 61.0018 750.774 61.0018C750.088 61.0018 749.56 61.2251 749.19 61.6716C748.83 62.1182 748.651 62.7335 748.651 63.5177V67.5039H747.229ZM759.587 67.6999C758.422 67.6999 757.507 67.3296 756.842 66.589C756.189 65.8484 755.862 64.9009 755.862 63.7464C755.862 62.6028 756.2 61.6553 756.875 60.9038C757.561 60.1523 758.476 59.7765 759.62 59.7765C760.208 59.7765 760.736 59.9127 761.204 60.185C761.673 60.4572 762.027 60.8275 762.266 61.2959V59.9726H763.671V67.5039H762.266V66.1806C762.027 66.638 761.662 67.0084 761.172 67.2915C760.682 67.5638 760.153 67.6999 759.587 67.6999ZM759.783 66.4257C760.578 66.4257 761.199 66.1697 761.646 65.6578C762.103 65.135 762.332 64.4979 762.332 63.7464C762.332 62.984 762.103 62.3469 761.646 61.835C761.199 61.3122 760.578 61.0508 759.783 61.0508C759.021 61.0508 758.411 61.3068 757.953 61.8186C757.496 62.3196 757.267 62.9622 757.267 63.7464C757.267 64.5306 757.496 65.1732 757.953 65.6742C758.411 66.1752 759.021 66.4257 759.783 66.4257ZM766.119 67.5039V59.9726H767.54V61.3449C767.693 60.8983 767.965 60.528 768.357 60.234C768.749 59.929 769.228 59.7765 769.795 59.7765C771.091 59.7765 771.897 60.3156 772.213 61.3939C772.387 60.9256 772.692 60.5389 773.127 60.234C773.563 59.929 774.064 59.7765 774.63 59.7765C776.438 59.7765 777.342 60.7622 777.342 62.7335V67.5039H775.921V63.0112C775.921 61.6716 775.377 61.0018 774.287 61.0018C773.057 61.0018 772.441 61.8622 772.441 63.583V67.5039H771.02V63.1093C771.02 61.7043 770.481 61.0018 769.403 61.0018C768.815 61.0018 768.357 61.2196 768.03 61.6553C767.704 62.08 767.54 62.7226 767.54 63.583V67.5039H766.119ZM786.394 63.3053C786.394 63.5122 786.377 63.7954 786.345 64.1548H780.512C780.523 64.8737 780.741 65.44 781.166 65.8539C781.591 66.2569 782.162 66.4583 782.881 66.4583C783.883 66.4583 784.548 66.088 784.874 65.3474H786.296C786.165 66.0445 785.784 66.6108 785.152 67.0465C784.52 67.4821 783.763 67.6999 782.881 67.6999C781.727 67.6999 780.806 67.346 780.12 66.638C779.445 65.9192 779.107 64.9499 779.107 63.7301C779.107 62.532 779.445 61.5736 780.12 60.8548C780.795 60.1359 781.694 59.7765 782.816 59.7765C783.883 59.7765 784.744 60.1033 785.397 60.7567C786.061 61.4102 786.394 62.2597 786.394 63.3053ZM780.512 63.0603H784.989C784.989 62.3959 784.793 61.8731 784.4 61.4919C784.019 61.1107 783.486 60.9201 782.799 60.9201C782.124 60.9201 781.58 61.1162 781.166 61.5082C780.763 61.9003 780.545 62.4177 780.512 63.0603ZM793.082 58.682C792.745 58.682 792.467 58.573 792.249 58.3552C792.031 58.1374 791.922 57.8651 791.922 57.5384C791.922 57.2116 792.031 56.9393 792.249 56.7215C792.467 56.4928 792.745 56.3784 793.082 56.3784C793.409 56.3784 793.681 56.4928 793.899 56.7215C794.117 56.9393 794.226 57.2116 794.226 57.5384C794.226 57.8651 794.117 58.1374 793.899 58.3552C793.681 58.573 793.409 58.682 793.082 58.682ZM792.363 67.5039V59.9726H793.785V67.5039H792.363ZM798.772 67.6999C797.825 67.6999 797.062 67.4658 796.485 66.9975C795.919 66.5182 795.636 65.9356 795.636 65.2494H797.041C797.041 65.6306 797.204 65.9465 797.531 66.197C797.858 66.4366 798.293 66.5564 798.838 66.5564C799.263 66.5564 799.6 66.4583 799.851 66.2623C800.101 66.0663 800.226 65.7994 800.226 65.4618C800.226 64.9281 799.981 64.6014 799.491 64.4816L797.482 63.9588C796.404 63.6647 795.864 62.9895 795.864 61.933C795.864 61.3122 796.126 60.8003 796.649 60.3973C797.171 59.9835 797.852 59.7765 798.691 59.7765C799.606 59.7765 800.314 59.9889 800.815 60.4137C801.326 60.8275 801.582 61.3721 801.582 62.0474H800.177C800.177 61.688 800.041 61.4048 799.769 61.1978C799.497 60.98 799.115 60.8711 798.625 60.8711C798.233 60.8711 797.907 60.9637 797.645 61.1488C797.395 61.3231 797.269 61.5627 797.269 61.8677C797.269 62.3795 797.547 62.7008 798.103 62.8315L799.981 63.3543C800.515 63.4959 800.929 63.7464 801.223 64.1058C801.517 64.4652 801.664 64.8737 801.664 65.3311C801.664 66.0499 801.408 66.6272 800.896 67.0628C800.384 67.4876 799.676 67.6999 798.772 67.6999ZM810.014 67.5039V57.473H806.6V56.068H814.915V57.473H811.501V67.5039H810.014ZM818.414 67.6999C817.216 67.6999 816.263 67.3242 815.555 66.5727C814.847 65.8103 814.493 64.8628 814.493 63.7301C814.493 62.5974 814.847 61.6553 815.555 60.9038C816.263 60.1523 817.216 59.7765 818.414 59.7765C819.601 59.7765 820.549 60.1577 821.257 60.9201C821.976 61.6716 822.335 62.6083 822.335 63.7301C822.335 64.8628 821.976 65.8103 821.257 66.5727C820.549 67.3242 819.601 67.6999 818.414 67.6999ZM816.568 65.6742C817.026 66.1752 817.641 66.4257 818.414 66.4257C819.188 66.4257 819.797 66.1752 820.244 65.6742C820.691 65.1623 820.914 64.5142 820.914 63.7301C820.914 62.9568 820.691 62.3196 820.244 61.8186C819.797 61.3068 819.188 61.0508 818.414 61.0508C817.641 61.0508 817.026 61.3068 816.568 61.8186C816.122 62.3196 815.898 62.9622 815.898 63.7464C815.898 64.5197 816.122 65.1623 816.568 65.6742ZM826.708 67.6999C825.76 67.6999 824.998 67.4658 824.421 66.9975C823.854 66.5182 823.571 65.9356 823.571 65.2494H824.976C824.976 65.6306 825.14 65.9465 825.466 66.197C825.793 66.4366 826.229 66.5564 826.773 66.5564C827.198 66.5564 827.536 66.4583 827.786 66.2623C828.037 66.0663 828.162 65.7994 828.162 65.4618C828.162 64.9281 827.917 64.6014 827.427 64.4816L825.417 63.9588C824.339 63.6647 823.8 62.9895 823.8 61.933C823.8 61.3122 824.061 60.8003 824.584 60.3973C825.107 59.9835 825.788 59.7765 826.626 59.7765C827.541 59.7765 828.249 59.9889 828.75 60.4137C829.262 60.8275 829.518 61.3721 829.518 62.0474H828.113C828.113 61.688 827.977 61.4048 827.705 61.1978C827.432 60.98 827.051 60.8711 826.561 60.8711C826.169 60.8711 825.842 60.9637 825.581 61.1488C825.33 61.3231 825.205 61.5627 825.205 61.8677C825.205 62.3795 825.483 62.7008 826.038 62.8315L827.917 63.3543C828.451 63.4959 828.864 63.7464 829.159 64.1058C829.453 64.4652 829.6 64.8737 829.6 65.3311C829.6 66.0499 829.344 66.6272 828.832 67.0628C828.32 67.4876 827.612 67.6999 826.708 67.6999ZM832.249 58.682C831.912 58.682 831.634 58.573 831.416 58.3552C831.198 58.1374 831.089 57.8651 831.089 57.5384C831.089 57.2116 831.198 56.9393 831.416 56.7215C831.634 56.4928 831.912 56.3784 832.249 56.3784C832.576 56.3784 832.848 56.4928 833.066 56.7215C833.284 56.9393 833.393 57.2116 833.393 57.5384C833.393 57.8651 833.284 58.1374 833.066 58.3552C832.848 58.573 832.576 58.682 832.249 58.682ZM831.531 67.5039V59.9726H832.952V67.5039H831.531ZM835.407 67.5039V59.9726H836.829V61.3612C837.036 60.8711 837.362 60.4845 837.809 60.2013C838.266 59.9181 838.816 59.7765 839.459 59.7765C841.332 59.7765 842.269 60.8058 842.269 62.8642V67.5039H840.848V63.485C840.848 62.6355 840.695 62.0092 840.39 61.6063C840.096 61.2033 839.617 61.0018 838.953 61.0018C838.266 61.0018 837.738 61.2251 837.368 61.6716C837.008 62.1182 836.829 62.7335 836.829 63.5177V67.5039H835.407ZM701.855 78.9726H703.276V86.6509C703.276 87.8381 702.933 88.7421 702.247 89.3629C701.637 89.9074 700.815 90.1797 699.78 90.1797C698.691 90.1797 697.841 89.9183 697.231 89.3955C696.676 88.9272 696.393 88.2792 696.382 87.4514H697.82C697.874 88.4752 698.522 88.9871 699.764 88.9871C701.158 88.9871 701.855 88.1757 701.855 86.5529V85.1479C701.354 86.1826 700.482 86.6999 699.241 86.6999C698.293 86.6999 697.58 86.4113 697.101 85.8341C696.621 85.246 696.382 84.4563 696.382 83.4652V78.9726H697.803V83.1712C697.803 83.9009 697.945 84.4618 698.228 84.8539C698.522 85.2351 699.018 85.4257 699.715 85.4257C700.401 85.4257 700.929 85.1806 701.299 84.6905C701.67 84.1895 701.855 83.5741 701.855 82.8444V78.9726ZM709.049 86.6999C707.851 86.6999 706.898 86.3242 706.19 85.5727C705.482 84.8103 705.128 83.8628 705.128 82.7301C705.128 81.5974 705.482 80.6553 706.19 79.9038C706.898 79.1523 707.851 78.7765 709.049 78.7765C710.236 78.7765 711.184 79.1577 711.892 79.9201C712.611 80.6716 712.97 81.6083 712.97 82.7301C712.97 83.8628 712.611 84.8103 711.892 85.5727C711.184 86.3242 710.236 86.6999 709.049 86.6999ZM707.203 84.6742C707.661 85.1752 708.276 85.4257 709.049 85.4257C709.823 85.4257 710.432 85.1752 710.879 84.6742C711.326 84.1623 711.549 83.5142 711.549 82.7301C711.549 81.9568 711.326 81.3196 710.879 80.8186C710.432 80.3068 709.823 80.0508 709.049 80.0508C708.276 80.0508 707.661 80.3068 707.203 80.8186C706.757 81.3196 706.533 81.9622 706.533 82.7464C706.533 83.5197 706.757 84.1623 707.203 84.6742ZM717.588 86.6999C716.717 86.6999 716.02 86.4386 715.497 85.9158C714.985 85.3821 714.729 84.6143 714.729 83.6123V78.9726H716.15V83.2692C716.15 84.7395 716.76 85.4747 717.98 85.4747C718.699 85.4747 719.233 85.246 719.581 84.7885C719.941 84.3202 720.12 83.7539 720.12 83.0895V78.9726H721.542V86.5039H720.12V85.1316C719.913 85.6108 719.587 85.992 719.14 86.2752C718.704 86.5584 718.187 86.6999 717.588 86.6999ZM724.435 74.774C724.794 74.774 725.115 74.9265 725.398 75.2314C725.682 75.5364 725.823 75.972 725.823 76.5384C725.823 77.181 725.649 77.7037 725.3 78.1067C724.952 78.5097 724.467 78.7112 723.846 78.7112C723.64 78.7112 723.471 78.6948 723.34 78.6622V78.0087C723.46 78.0305 723.629 78.0414 723.846 78.0414C724.282 78.0414 724.582 77.8617 724.745 77.5022C724.897 77.2735 724.974 77.0012 724.974 76.6854C724.843 76.8488 724.636 76.9305 724.353 76.9305C724.059 76.9305 723.808 76.8324 723.601 76.6364C723.405 76.4403 723.307 76.1844 723.307 75.8686C723.307 75.5527 723.411 75.2913 723.618 75.0844C723.825 74.8774 724.097 74.774 724.435 74.774ZM727.335 86.5039V78.9726H728.756V80.688C728.898 80.0889 729.175 79.6369 729.589 79.332C730.003 79.0161 730.46 78.8582 730.961 78.8582C731.256 78.8582 731.484 78.88 731.648 78.9236V80.2305C731.484 80.1978 731.25 80.1815 730.945 80.1815C730.237 80.1815 729.693 80.4647 729.311 81.031C728.941 81.5974 728.756 82.3216 728.756 83.2038V86.5039H727.335ZM739.696 82.3053C739.696 82.5122 739.68 82.7954 739.647 83.1548H733.815C733.826 83.8737 734.044 84.44 734.468 84.8539C734.893 85.2569 735.465 85.4583 736.184 85.4583C737.186 85.4583 737.85 85.088 738.177 84.3474H739.598C739.467 85.0445 739.086 85.6108 738.454 86.0465C737.823 86.4821 737.066 86.6999 736.184 86.6999C735.029 86.6999 734.109 86.346 733.423 85.638C732.747 84.9192 732.41 83.9499 732.41 82.7301C732.41 81.532 732.747 80.5736 733.423 79.8548C734.098 79.1359 734.997 78.7765 736.118 78.7765C737.186 78.7765 738.046 79.1033 738.7 79.7567C739.364 80.4102 739.696 81.2597 739.696 82.3053ZM733.815 82.0603H738.291C738.291 81.3959 738.095 80.8731 737.703 80.4919C737.322 80.1107 736.788 79.9201 736.102 79.9201C735.427 79.9201 734.882 80.1162 734.468 80.5082C734.065 80.9003 733.847 81.4177 733.815 82.0603ZM747.349 86.5039L744.571 78.9726H746.123L747.937 84.4618L749.766 78.9726H751.286L753.115 84.4618L754.929 78.9726H756.497L753.704 86.5039H752.495L750.518 80.7206L748.557 86.5039H747.349ZM764.17 82.3053C764.17 82.5122 764.153 82.7954 764.121 83.1548H758.288C758.299 83.8737 758.517 84.44 758.942 84.8539C759.367 85.2569 759.938 85.4583 760.657 85.4583C761.659 85.4583 762.324 85.088 762.65 84.3474H764.072C763.941 85.0445 763.56 85.6108 762.928 86.0465C762.296 86.4821 761.539 86.6999 760.657 86.6999C759.503 86.6999 758.582 86.346 757.896 85.638C757.221 84.9192 756.883 83.9499 756.883 82.7301C756.883 81.532 757.221 80.5736 757.896 79.8548C758.571 79.1359 759.47 78.7765 760.592 78.7765C761.659 78.7765 762.52 79.1033 763.173 79.7567C763.837 80.4102 764.17 81.2597 764.17 82.3053ZM758.288 82.0603H762.765C762.765 81.3959 762.569 80.8731 762.177 80.4919C761.795 80.1107 761.262 79.9201 760.575 79.9201C759.9 79.9201 759.356 80.1162 758.942 80.5082C758.539 80.9003 758.321 81.4177 758.288 82.0603ZM766.007 86.5039V75.068H767.429V86.5039H766.007ZM773.021 86.6999C771.877 86.6999 770.968 86.3405 770.293 85.6217C769.617 84.892 769.28 83.9336 769.28 82.7464C769.28 81.5593 769.617 80.6063 770.293 79.8874C770.968 79.1577 771.877 78.7929 773.021 78.7929C774.034 78.7929 774.851 79.0488 775.471 79.5607C776.092 80.0617 776.446 80.737 776.533 81.5865H775.112C774.916 80.5736 774.219 80.0671 773.021 80.0671C772.291 80.0671 771.719 80.3068 771.305 80.786C770.892 81.2543 770.685 81.9078 770.685 82.7464C770.685 83.585 770.892 84.244 771.305 84.7232C771.719 85.1915 772.291 85.4257 773.021 85.4257C774.208 85.4257 774.905 84.9356 775.112 83.9553H776.533C776.446 84.794 776.092 85.4638 775.471 85.9648C774.851 86.4549 774.034 86.6999 773.021 86.6999ZM781.784 86.6999C780.586 86.6999 779.633 86.3242 778.925 85.5727C778.217 84.8103 777.863 83.8628 777.863 82.7301C777.863 81.5974 778.217 80.6553 778.925 79.9038C779.633 79.1523 780.586 78.7765 781.784 78.7765C782.971 78.7765 783.918 79.1577 784.626 79.9201C785.345 80.6716 785.705 81.6083 785.705 82.7301C785.705 83.8628 785.345 84.8103 784.626 85.5727C783.918 86.3242 782.971 86.6999 781.784 86.6999ZM779.938 84.6742C780.395 85.1752 781.01 85.4257 781.784 85.4257C782.557 85.4257 783.167 85.1752 783.614 84.6742C784.06 84.1623 784.283 83.5142 784.283 82.7301C784.283 81.9568 784.06 81.3196 783.614 80.8186C783.167 80.3068 782.557 80.0508 781.784 80.0508C781.01 80.0508 780.395 80.3068 779.938 80.8186C779.491 81.3196 779.268 81.9622 779.268 82.7464C779.268 83.5197 779.491 84.1623 779.938 84.6742ZM787.545 86.5039V78.9726H788.967V80.3449C789.119 79.8983 789.391 79.528 789.783 79.234C790.175 78.929 790.655 78.7765 791.221 78.7765C792.517 78.7765 793.323 79.3156 793.639 80.3939C793.813 79.9256 794.118 79.5389 794.554 79.234C794.989 78.929 795.49 78.7765 796.057 78.7765C797.865 78.7765 798.769 79.7622 798.769 81.7335V86.5039H797.347V82.0112C797.347 80.6716 796.803 80.0018 795.714 80.0018C794.483 80.0018 793.868 80.8622 793.868 82.583V86.5039H792.446V82.1093C792.446 80.7043 791.907 80.0018 790.829 80.0018C790.241 80.0018 789.783 80.2196 789.457 80.6553C789.13 81.08 788.967 81.7226 788.967 82.583V86.5039H787.545ZM807.82 82.3053C807.82 82.5122 807.804 82.7954 807.771 83.1548H801.939C801.949 83.8737 802.167 84.44 802.592 84.8539C803.017 85.2569 803.589 85.4583 804.307 85.4583C805.309 85.4583 805.974 85.088 806.301 84.3474H807.722C807.591 85.0445 807.21 85.6108 806.578 86.0465C805.947 86.4821 805.19 86.6999 804.307 86.6999C803.153 86.6999 802.233 86.346 801.547 85.638C800.871 84.9192 800.534 83.9499 800.534 82.7301C800.534 81.532 800.871 80.5736 801.547 79.8548C802.222 79.1359 803.12 78.7765 804.242 78.7765C805.309 78.7765 806.17 79.1033 806.823 79.7567C807.488 80.4102 807.82 81.2597 807.82 82.3053ZM801.939 82.0603H806.415C806.415 81.3959 806.219 80.8731 805.827 80.4919C805.446 80.1107 804.912 79.9201 804.226 79.9201C803.551 79.9201 803.006 80.1162 802.592 80.5082C802.189 80.9003 801.971 81.4177 801.939 82.0603ZM816.943 85.3113C817.335 85.3113 817.651 85.2841 817.89 85.2296V86.4876C817.563 86.5638 817.144 86.6019 816.632 86.6019C816.404 86.6019 816.202 86.591 816.028 86.5693C815.864 86.5475 815.668 86.4876 815.44 86.3895C815.211 86.2915 815.02 86.1554 814.868 85.9811C814.715 85.796 814.585 85.54 814.476 85.2133C814.367 84.8757 814.312 84.4727 814.312 84.0044V80.1652H812.956V78.9726H814.312V76.5874H815.734V78.9726H817.629V80.1652H815.734V83.694C815.734 84.3583 815.832 84.794 816.028 85.0009C816.224 85.2078 816.529 85.3113 816.943 85.3113ZM822.834 86.6999C821.636 86.6999 820.683 86.3242 819.975 85.5727C819.267 84.8103 818.913 83.8628 818.913 82.7301C818.913 81.5974 819.267 80.6553 819.975 79.9038C820.683 79.1523 821.636 78.7765 822.834 78.7765C824.021 78.7765 824.968 79.1577 825.676 79.9201C826.395 80.6716 826.754 81.6083 826.754 82.7301C826.754 83.8628 826.395 84.8103 825.676 85.5727C824.968 86.3242 824.021 86.6999 822.834 86.6999ZM820.987 84.6742C821.445 85.1752 822.06 85.4257 822.834 85.4257C823.607 85.4257 824.217 85.1752 824.663 84.6742C825.11 84.1623 825.333 83.5142 825.333 82.7301C825.333 81.9568 825.11 81.3196 824.663 80.8186C824.217 80.3068 823.607 80.0508 822.834 80.0508C822.06 80.0508 821.445 80.3068 820.987 80.8186C820.541 81.3196 820.318 81.9622 820.318 82.7464C820.318 83.5197 820.541 84.1623 820.987 84.6742ZM832.809 86.5039V75.068H834.393L839.54 84.0207V75.068H840.961V86.5039H839.393L834.246 77.5513V86.5039H832.809ZM842.598 86.5039L846.355 80.786L842.598 75.068H844.28L847.205 79.5607L850.129 75.068H851.812L848.054 80.786L851.812 86.5039H850.129L847.205 82.0276L844.28 86.5039H842.598ZM855.882 86.5039V76.473H852.468V75.068H860.783V76.473H857.369V86.5039H855.882Z" fill="black"/>
</g>
<g filter="url(#filter2_d_1_60)">
<path d="M343.151 291.827L332.801 273.299L354.021 273.6L343.151 291.827Z" fill="#D9D9D9"/>
<rect x="326" y="192" width="215.648" height="86.5858" rx="6.53478" fill="white"/>
<path d="M348.545 231.504V220.068H350.032V225.149H355.358V220.068H356.844V231.504H355.358V226.488H350.032V231.504H348.545ZM360.095 222.682C359.757 222.682 359.48 222.573 359.262 222.355C359.044 222.137 358.935 221.865 358.935 221.538C358.935 221.212 359.044 220.939 359.262 220.722C359.48 220.493 359.757 220.378 360.095 220.378C360.422 220.378 360.694 220.493 360.912 220.722C361.13 220.939 361.239 221.212 361.239 221.538C361.239 221.865 361.13 222.137 360.912 222.355C360.694 222.573 360.422 222.682 360.095 222.682ZM359.376 231.504V223.973H360.797V231.504H359.376ZM363.759 233.464C363.542 233.464 363.356 233.448 363.204 233.415V232.729C363.335 232.751 363.536 232.762 363.808 232.762C364.255 232.762 364.56 232.577 364.723 232.206C364.865 231.978 364.936 231.684 364.936 231.324C364.794 231.498 364.571 231.586 364.266 231.586C363.95 231.586 363.689 231.482 363.482 231.275C363.275 231.068 363.171 230.796 363.171 230.458C363.171 230.121 363.28 229.843 363.498 229.625C363.727 229.407 364.01 229.298 364.348 229.298C364.74 229.298 365.083 229.462 365.377 229.789C365.682 230.104 365.834 230.562 365.834 231.161C365.834 231.847 365.649 232.402 365.279 232.827C364.919 233.252 364.413 233.464 363.759 233.464ZM372.235 231.504V223.973H373.656V225.345C373.809 224.898 374.081 224.528 374.473 224.234C374.865 223.929 375.345 223.777 375.911 223.777C377.207 223.777 378.013 224.316 378.329 225.394C378.503 224.926 378.808 224.539 379.244 224.234C379.679 223.929 380.18 223.777 380.747 223.777C382.555 223.777 383.459 224.762 383.459 226.734V231.504H382.037V227.011C382.037 225.672 381.493 225.002 380.404 225.002C379.173 225.002 378.557 225.862 378.557 227.583V231.504H377.136V227.109C377.136 225.704 376.597 225.002 375.519 225.002C374.931 225.002 374.473 225.22 374.147 225.655C373.82 226.08 373.656 226.723 373.656 227.583V231.504H372.235ZM391.219 223.973H392.64V231.651C392.64 232.838 392.297 233.742 391.611 234.363C391.001 234.907 390.179 235.18 389.144 235.18C388.055 235.18 387.206 234.918 386.596 234.396C386.04 233.927 385.757 233.279 385.746 232.451H387.184C387.238 233.475 387.886 233.987 389.128 233.987C390.522 233.987 391.219 233.176 391.219 231.553V230.148C390.718 231.183 389.847 231.7 388.605 231.7C387.658 231.7 386.944 231.411 386.465 230.834C385.986 230.246 385.746 229.456 385.746 228.465V223.973H387.168V228.171C387.168 228.901 387.309 229.462 387.592 229.854C387.886 230.235 388.382 230.426 389.079 230.426C389.765 230.426 390.293 230.181 390.664 229.691C391.034 229.19 391.219 228.574 391.219 227.844V223.973ZM399.229 231.504V223.973H400.651V225.361C400.858 224.871 401.184 224.484 401.631 224.201C402.088 223.918 402.638 223.777 403.281 223.777C405.154 223.777 406.091 224.806 406.091 226.864V231.504H404.67V227.485C404.67 226.635 404.517 226.009 404.212 225.606C403.918 225.203 403.439 225.002 402.774 225.002C402.088 225.002 401.56 225.225 401.19 225.672C400.83 226.118 400.651 226.734 400.651 227.518V231.504H399.229ZM411.587 231.7C410.422 231.7 409.507 231.33 408.842 230.589C408.189 229.848 407.862 228.901 407.862 227.746C407.862 226.603 408.2 225.655 408.875 224.904C409.561 224.152 410.476 223.777 411.62 223.777C412.208 223.777 412.736 223.913 413.204 224.185C413.673 224.457 414.027 224.828 414.266 225.296V223.973H415.671V231.504H414.266V230.181C414.027 230.638 413.662 231.008 413.172 231.292C412.682 231.564 412.153 231.7 411.587 231.7ZM411.783 230.426C412.578 230.426 413.199 230.17 413.646 229.658C414.103 229.135 414.332 228.498 414.332 227.746C414.332 226.984 414.103 226.347 413.646 225.835C413.199 225.312 412.578 225.051 411.783 225.051C411.021 225.051 410.411 225.307 409.953 225.819C409.496 226.32 409.267 226.962 409.267 227.746C409.267 228.531 409.496 229.173 409.953 229.674C410.411 230.175 411.021 230.426 411.783 230.426ZM418.119 231.504V223.973H419.54V225.345C419.693 224.898 419.965 224.528 420.357 224.234C420.749 223.929 421.228 223.777 421.795 223.777C423.091 223.777 423.897 224.316 424.213 225.394C424.387 224.926 424.692 224.539 425.127 224.234C425.563 223.929 426.064 223.777 426.63 223.777C428.438 223.777 429.342 224.762 429.342 226.734V231.504H427.921V227.011C427.921 225.672 427.377 225.002 426.287 225.002C425.057 225.002 424.441 225.862 424.441 227.583V231.504H423.02V227.109C423.02 225.704 422.481 225.002 421.403 225.002C420.815 225.002 420.357 225.22 420.03 225.655C419.704 226.08 419.54 226.723 419.54 227.583V231.504H418.119ZM438.394 227.305C438.394 227.512 438.377 227.795 438.345 228.155H432.512C432.523 228.874 432.741 229.44 433.166 229.854C433.591 230.257 434.162 230.458 434.881 230.458C435.883 230.458 436.548 230.088 436.874 229.347H438.296C438.165 230.044 437.784 230.611 437.152 231.046C436.52 231.482 435.763 231.7 434.881 231.7C433.727 231.7 432.806 231.346 432.12 230.638C431.445 229.919 431.107 228.95 431.107 227.73C431.107 226.532 431.445 225.574 432.12 224.855C432.795 224.136 433.694 223.777 434.816 223.777C435.883 223.777 436.744 224.103 437.397 224.757C438.061 225.41 438.394 226.26 438.394 227.305ZM432.512 227.06H436.989C436.989 226.396 436.793 225.873 436.4 225.492C436.019 225.111 435.486 224.92 434.799 224.92C434.124 224.92 433.58 225.116 433.166 225.508C432.763 225.9 432.545 226.418 432.512 227.06ZM445.082 222.682C444.745 222.682 444.467 222.573 444.249 222.355C444.031 222.137 443.922 221.865 443.922 221.538C443.922 221.212 444.031 220.939 444.249 220.722C444.467 220.493 444.745 220.378 445.082 220.378C445.409 220.378 445.681 220.493 445.899 220.722C446.117 220.939 446.226 221.212 446.226 221.538C446.226 221.865 446.117 222.137 445.899 222.355C445.681 222.573 445.409 222.682 445.082 222.682ZM444.363 231.504V223.973H445.785V231.504H444.363ZM450.772 231.7C449.825 231.7 449.062 231.466 448.485 230.997C447.919 230.518 447.636 229.936 447.636 229.249H449.041C449.041 229.631 449.204 229.946 449.531 230.197C449.858 230.437 450.293 230.556 450.838 230.556C451.263 230.556 451.6 230.458 451.851 230.262C452.101 230.066 452.226 229.799 452.226 229.462C452.226 228.928 451.981 228.601 451.491 228.482L449.482 227.959C448.404 227.665 447.864 226.989 447.864 225.933C447.864 225.312 448.126 224.8 448.649 224.397C449.171 223.983 449.852 223.777 450.691 223.777C451.606 223.777 452.314 223.989 452.815 224.414C453.326 224.828 453.582 225.372 453.582 226.047H452.177C452.177 225.688 452.041 225.405 451.769 225.198C451.497 224.98 451.115 224.871 450.625 224.871C450.233 224.871 449.907 224.964 449.645 225.149C449.395 225.323 449.269 225.563 449.269 225.868C449.269 226.38 449.547 226.701 450.103 226.832L451.981 227.354C452.515 227.496 452.929 227.746 453.223 228.106C453.517 228.465 453.664 228.874 453.664 229.331C453.664 230.05 453.408 230.627 452.896 231.063C452.384 231.488 451.676 231.7 450.772 231.7ZM462.57 231.765C461.437 231.765 460.539 231.417 459.874 230.72C459.21 230.012 458.878 229.064 458.878 227.877H460.364C460.364 228.661 460.56 229.282 460.952 229.74C461.355 230.197 461.894 230.426 462.57 230.426C463.256 230.426 463.79 230.197 464.171 229.74C464.563 229.271 464.759 228.639 464.759 227.844V220.068H466.246V227.844C466.246 229.042 465.919 229.995 465.265 230.703C464.612 231.411 463.713 231.765 462.57 231.765ZM471.802 231.7C470.604 231.7 469.651 231.324 468.943 230.573C468.235 229.81 467.881 228.863 467.881 227.73C467.881 226.597 468.235 225.655 468.943 224.904C469.651 224.152 470.604 223.777 471.802 223.777C472.989 223.777 473.937 224.158 474.645 224.92C475.364 225.672 475.723 226.608 475.723 227.73C475.723 228.863 475.364 229.81 474.645 230.573C473.937 231.324 472.989 231.7 471.802 231.7ZM469.956 229.674C470.414 230.175 471.029 230.426 471.802 230.426C472.576 230.426 473.185 230.175 473.632 229.674C474.079 229.162 474.302 228.514 474.302 227.73C474.302 226.957 474.079 226.32 473.632 225.819C473.185 225.307 472.576 225.051 471.802 225.051C471.029 225.051 470.414 225.307 469.956 225.819C469.51 226.32 469.286 226.962 469.286 227.746C469.286 228.52 469.51 229.162 469.956 229.674ZM480.096 231.7C479.148 231.7 478.386 231.466 477.809 230.997C477.242 230.518 476.959 229.936 476.959 229.249H478.364C478.364 229.631 478.528 229.946 478.854 230.197C479.181 230.437 479.617 230.556 480.161 230.556C480.586 230.556 480.924 230.458 481.174 230.262C481.425 230.066 481.55 229.799 481.55 229.462C481.55 228.928 481.305 228.601 480.815 228.482L478.805 227.959C477.727 227.665 477.188 226.989 477.188 225.933C477.188 225.312 477.449 224.8 477.972 224.397C478.495 223.983 479.176 223.777 480.014 223.777C480.929 223.777 481.637 223.989 482.138 224.414C482.65 224.828 482.906 225.372 482.906 226.047H481.501C481.501 225.688 481.365 225.405 481.093 225.198C480.82 224.98 480.439 224.871 479.949 224.871C479.557 224.871 479.23 224.964 478.969 225.149C478.718 225.323 478.593 225.563 478.593 225.868C478.593 226.38 478.871 226.701 479.426 226.832L481.305 227.354C481.839 227.496 482.252 227.746 482.546 228.106C482.841 228.465 482.988 228.874 482.988 229.331C482.988 230.05 482.732 230.627 482.22 231.063C481.708 231.488 481 231.7 480.096 231.7ZM488.986 223.777C490.86 223.777 491.796 224.806 491.796 226.864V231.504H490.375V227.485C490.375 226.635 490.223 226.009 489.918 225.606C489.624 225.203 489.144 225.002 488.48 225.002C487.794 225.002 487.266 225.225 486.895 225.672C486.536 226.118 486.356 226.734 486.356 227.518V231.504H484.935V220.068H486.356V225.361C486.563 224.871 486.89 224.484 487.336 224.201C487.794 223.918 488.344 223.777 488.986 223.777ZM496.949 231.7C496.078 231.7 495.381 231.439 494.858 230.916C494.346 230.382 494.09 229.614 494.09 228.612V223.973H495.512V228.269C495.512 229.74 496.121 230.475 497.341 230.475C498.06 230.475 498.594 230.246 498.942 229.789C499.302 229.32 499.481 228.754 499.481 228.089V223.973H500.903V231.504H499.481V230.132C499.274 230.611 498.948 230.992 498.501 231.275C498.066 231.558 497.548 231.7 496.949 231.7ZM506.466 231.7C505.3 231.7 504.386 231.33 503.721 230.589C503.068 229.848 502.741 228.901 502.741 227.746C502.741 226.603 503.079 225.655 503.754 224.904C504.44 224.152 505.355 223.777 506.499 223.777C507.087 223.777 507.615 223.913 508.083 224.185C508.552 224.457 508.905 224.828 509.145 225.296V223.973H510.55V231.504H509.145V230.181C508.905 230.638 508.541 231.008 508.051 231.292C507.56 231.564 507.032 231.7 506.466 231.7ZM506.662 230.426C507.457 230.426 508.078 230.17 508.524 229.658C508.982 229.135 509.21 228.498 509.21 227.746C509.21 226.984 508.982 226.347 508.524 225.835C508.078 225.312 507.457 225.051 506.662 225.051C505.899 225.051 505.29 225.307 504.832 225.819C504.375 226.32 504.146 226.962 504.146 227.746C504.146 228.531 504.375 229.173 504.832 229.674C505.29 230.175 505.899 230.426 506.662 230.426ZM353.855 242.973H355.276V250.651C355.276 251.838 354.933 252.742 354.247 253.363C353.637 253.907 352.815 254.18 351.78 254.18C350.691 254.18 349.841 253.918 349.231 253.396C348.676 252.927 348.393 252.279 348.382 251.451H349.82C349.874 252.475 350.522 252.987 351.764 252.987C353.158 252.987 353.855 252.176 353.855 250.553V249.148C353.354 250.183 352.482 250.7 351.241 250.7C350.293 250.7 349.58 250.411 349.101 249.834C348.621 249.246 348.382 248.456 348.382 247.465V242.973H349.803V247.171C349.803 247.901 349.945 248.462 350.228 248.854C350.522 249.235 351.018 249.426 351.715 249.426C352.401 249.426 352.929 249.181 353.299 248.691C353.67 248.19 353.855 247.574 353.855 246.844V242.973ZM361.049 250.7C359.851 250.7 358.898 250.324 358.19 249.573C357.482 248.81 357.128 247.863 357.128 246.73C357.128 245.597 357.482 244.655 358.19 243.904C358.898 243.152 359.851 242.777 361.049 242.777C362.236 242.777 363.184 243.158 363.892 243.92C364.611 244.672 364.97 245.608 364.97 246.73C364.97 247.863 364.611 248.81 363.892 249.573C363.184 250.324 362.236 250.7 361.049 250.7ZM359.203 248.674C359.661 249.175 360.276 249.426 361.049 249.426C361.823 249.426 362.432 249.175 362.879 248.674C363.326 248.162 363.549 247.514 363.549 246.73C363.549 245.957 363.326 245.32 362.879 244.819C362.432 244.307 361.823 244.051 361.049 244.051C360.276 244.051 359.661 244.307 359.203 244.819C358.757 245.32 358.533 245.962 358.533 246.746C358.533 247.52 358.757 248.162 359.203 248.674ZM369.588 250.7C368.717 250.7 368.02 250.439 367.497 249.916C366.985 249.382 366.729 248.614 366.729 247.612V242.973H368.15V247.269C368.15 248.74 368.76 249.475 369.98 249.475C370.699 249.475 371.233 249.246 371.581 248.789C371.941 248.32 372.12 247.754 372.12 247.089V242.973H373.542V250.504H372.12V249.132C371.913 249.611 371.587 249.992 371.14 250.275C370.704 250.558 370.187 250.7 369.588 250.7ZM376.435 238.774C376.794 238.774 377.115 238.926 377.398 239.231C377.682 239.536 377.823 239.972 377.823 240.538C377.823 241.181 377.649 241.704 377.3 242.107C376.952 242.51 376.467 242.711 375.846 242.711C375.64 242.711 375.471 242.695 375.34 242.662V242.009C375.46 242.03 375.629 242.041 375.846 242.041C376.282 242.041 376.582 241.862 376.745 241.502C376.897 241.274 376.974 241.001 376.974 240.685C376.843 240.849 376.636 240.93 376.353 240.93C376.059 240.93 375.808 240.832 375.601 240.636C375.405 240.44 375.307 240.184 375.307 239.869C375.307 239.553 375.411 239.291 375.618 239.084C375.825 238.877 376.097 238.774 376.435 238.774ZM379.335 250.504V242.973H380.756V244.688C380.898 244.089 381.175 243.637 381.589 243.332C382.003 243.016 382.46 242.858 382.961 242.858C383.256 242.858 383.484 242.88 383.648 242.924V244.231C383.484 244.198 383.25 244.182 382.945 244.182C382.237 244.182 381.693 244.465 381.311 245.031C380.941 245.597 380.756 246.322 380.756 247.204V250.504H379.335ZM391.696 246.305C391.696 246.512 391.68 246.795 391.647 247.155H385.815C385.826 247.874 386.044 248.44 386.468 248.854C386.893 249.257 387.465 249.458 388.184 249.458C389.186 249.458 389.85 249.088 390.177 248.347H391.598C391.467 249.044 391.086 249.611 390.454 250.046C389.823 250.482 389.066 250.7 388.184 250.7C387.029 250.7 386.109 250.346 385.423 249.638C384.747 248.919 384.41 247.95 384.41 246.73C384.41 245.532 384.747 244.574 385.423 243.855C386.098 243.136 386.997 242.777 388.118 242.777C389.186 242.777 390.046 243.103 390.7 243.757C391.364 244.41 391.696 245.26 391.696 246.305ZM385.815 246.06H390.291C390.291 245.396 390.095 244.873 389.703 244.492C389.322 244.111 388.788 243.92 388.102 243.92C387.427 243.92 386.882 244.116 386.468 244.508C386.065 244.9 385.847 245.418 385.815 246.06ZM399.349 250.504L396.571 242.973H398.123L399.937 248.462L401.766 242.973H403.286L405.115 248.462L406.929 242.973H408.497L405.704 250.504H404.495L402.518 244.721L400.557 250.504H399.349ZM416.17 246.305C416.17 246.512 416.153 246.795 416.121 247.155H410.288C410.299 247.874 410.517 248.44 410.942 248.854C411.367 249.257 411.938 249.458 412.657 249.458C413.659 249.458 414.324 249.088 414.65 248.347H416.072C415.941 249.044 415.56 249.611 414.928 250.046C414.296 250.482 413.539 250.7 412.657 250.7C411.503 250.7 410.582 250.346 409.896 249.638C409.221 248.919 408.883 247.95 408.883 246.73C408.883 245.532 409.221 244.574 409.896 243.855C410.571 243.136 411.47 242.777 412.592 242.777C413.659 242.777 414.52 243.103 415.173 243.757C415.837 244.41 416.17 245.26 416.17 246.305ZM410.288 246.06H414.765C414.765 245.396 414.569 244.873 414.177 244.492C413.795 244.111 413.262 243.92 412.575 243.92C411.9 243.92 411.356 244.116 410.942 244.508C410.539 244.9 410.321 245.418 410.288 246.06ZM418.007 250.504V239.068H419.429V250.504H418.007ZM425.021 250.7C423.877 250.7 422.968 250.341 422.293 249.622C421.617 248.892 421.28 247.934 421.28 246.746C421.28 245.559 421.617 244.606 422.293 243.887C422.968 243.158 423.877 242.793 425.021 242.793C426.034 242.793 426.851 243.049 427.471 243.561C428.092 244.062 428.446 244.737 428.533 245.586H427.112C426.916 244.574 426.219 244.067 425.021 244.067C424.291 244.067 423.719 244.307 423.305 244.786C422.892 245.254 422.685 245.908 422.685 246.746C422.685 247.585 422.892 248.244 423.305 248.723C423.719 249.192 424.291 249.426 425.021 249.426C426.208 249.426 426.905 248.936 427.112 247.955H428.533C428.446 248.794 428.092 249.464 427.471 249.965C426.851 250.455 426.034 250.7 425.021 250.7ZM433.784 250.7C432.586 250.7 431.633 250.324 430.925 249.573C430.217 248.81 429.863 247.863 429.863 246.73C429.863 245.597 430.217 244.655 430.925 243.904C431.633 243.152 432.586 242.777 433.784 242.777C434.971 242.777 435.918 243.158 436.626 243.92C437.345 244.672 437.705 245.608 437.705 246.73C437.705 247.863 437.345 248.81 436.626 249.573C435.918 250.324 434.971 250.7 433.784 250.7ZM431.938 248.674C432.395 249.175 433.01 249.426 433.784 249.426C434.557 249.426 435.167 249.175 435.614 248.674C436.06 248.162 436.283 247.514 436.283 246.73C436.283 245.957 436.06 245.32 435.614 244.819C435.167 244.307 434.557 244.051 433.784 244.051C433.01 244.051 432.395 244.307 431.938 244.819C431.491 245.32 431.268 245.962 431.268 246.746C431.268 247.52 431.491 248.162 431.938 248.674ZM439.545 250.504V242.973H440.967V244.345C441.119 243.898 441.391 243.528 441.783 243.234C442.175 242.929 442.655 242.777 443.221 242.777C444.517 242.777 445.323 243.316 445.639 244.394C445.813 243.926 446.118 243.539 446.554 243.234C446.989 242.929 447.49 242.777 448.057 242.777C449.865 242.777 450.769 243.762 450.769 245.734V250.504H449.347V246.011C449.347 244.672 448.803 244.002 447.714 244.002C446.483 244.002 445.868 244.862 445.868 246.583V250.504H444.446V246.109C444.446 244.704 443.907 244.002 442.829 244.002C442.241 244.002 441.783 244.22 441.457 244.655C441.13 245.08 440.967 245.723 440.967 246.583V250.504H439.545ZM459.82 246.305C459.82 246.512 459.804 246.795 459.771 247.155H453.939C453.949 247.874 454.167 248.44 454.592 248.854C455.017 249.257 455.589 249.458 456.307 249.458C457.309 249.458 457.974 249.088 458.301 248.347H459.722C459.591 249.044 459.21 249.611 458.578 250.046C457.947 250.482 457.19 250.7 456.307 250.7C455.153 250.7 454.233 250.346 453.547 249.638C452.871 248.919 452.534 247.95 452.534 246.73C452.534 245.532 452.871 244.574 453.547 243.855C454.222 243.136 455.12 242.777 456.242 242.777C457.309 242.777 458.17 243.103 458.823 243.757C459.488 244.41 459.82 245.26 459.82 246.305ZM453.939 246.06H458.415C458.415 245.396 458.219 244.873 457.827 244.492C457.446 244.111 456.912 243.92 456.226 243.92C455.551 243.92 455.006 244.116 454.592 244.508C454.189 244.9 453.971 245.418 453.939 246.06ZM468.943 249.311C469.335 249.311 469.651 249.284 469.89 249.23V250.488C469.563 250.564 469.144 250.602 468.632 250.602C468.404 250.602 468.202 250.591 468.028 250.569C467.864 250.547 467.668 250.488 467.44 250.39C467.211 250.292 467.02 250.155 466.868 249.981C466.715 249.796 466.585 249.54 466.476 249.213C466.367 248.876 466.312 248.473 466.312 248.004V244.165H464.956V242.973H466.312V240.587H467.734V242.973H469.629V244.165H467.734V247.694C467.734 248.358 467.832 248.794 468.028 249.001C468.224 249.208 468.529 249.311 468.943 249.311ZM474.834 250.7C473.636 250.7 472.683 250.324 471.975 249.573C471.267 248.81 470.913 247.863 470.913 246.73C470.913 245.597 471.267 244.655 471.975 243.904C472.683 243.152 473.636 242.777 474.834 242.777C476.021 242.777 476.968 243.158 477.676 243.92C478.395 244.672 478.754 245.608 478.754 246.73C478.754 247.863 478.395 248.81 477.676 249.573C476.968 250.324 476.021 250.7 474.834 250.7ZM472.987 248.674C473.445 249.175 474.06 249.426 474.834 249.426C475.607 249.426 476.217 249.175 476.663 248.674C477.11 248.162 477.333 247.514 477.333 246.73C477.333 245.957 477.11 245.32 476.663 244.819C476.217 244.307 475.607 244.051 474.834 244.051C474.06 244.051 473.445 244.307 472.987 244.819C472.541 245.32 472.318 245.962 472.318 246.746C472.318 247.52 472.541 248.162 472.987 248.674ZM484.809 250.504V239.068H486.393L491.54 248.021V239.068H492.961V250.504H491.393L486.246 241.551V250.504H484.809ZM494.598 250.504L498.355 244.786L494.598 239.068H496.28L499.205 243.561L502.129 239.068H503.812L500.054 244.786L503.812 250.504H502.129L499.205 246.028L496.28 250.504H494.598ZM507.882 250.504V240.473H504.468V239.068H512.783V240.473H509.369V250.504H507.882Z" fill="black"/>
</g>
<g filter="url(#filter3_d_1_60)">
<path d="M1154.15 140.827L1143.8 122.299L1165.02 122.6L1154.15 140.827Z" fill="#D9D9D9"/>
<rect x="1137" y="41" width="215.648" height="86.5858" rx="6.53478" fill="white"/>
<path d="M1159.55 80.5039V69.068H1161.03V74.1488H1166.36V69.068H1167.84V80.5039H1166.36V75.4885H1161.03V80.5039H1159.55ZM1171.09 71.682C1170.76 71.682 1170.48 71.573 1170.26 71.3552C1170.04 71.1374 1169.94 70.8651 1169.94 70.5384C1169.94 70.2116 1170.04 69.9393 1170.26 69.7215C1170.48 69.4928 1170.76 69.3784 1171.09 69.3784C1171.42 69.3784 1171.69 69.4928 1171.91 69.7215C1172.13 69.9393 1172.24 70.2116 1172.24 70.5384C1172.24 70.8651 1172.13 71.1374 1171.91 71.3552C1171.69 71.573 1171.42 71.682 1171.09 71.682ZM1170.38 80.5039V72.9726H1171.8V80.5039H1170.38ZM1174.76 82.4643C1174.54 82.4643 1174.36 82.448 1174.2 82.4153V81.7292C1174.33 81.751 1174.54 81.7619 1174.81 81.7619C1175.25 81.7619 1175.56 81.5767 1175.72 81.2064C1175.86 80.9777 1175.94 80.6836 1175.94 80.3242C1175.79 80.4985 1175.57 80.5856 1175.27 80.5856C1174.95 80.5856 1174.69 80.4821 1174.48 80.2752C1174.27 80.0683 1174.17 79.796 1174.17 79.4583C1174.17 79.1207 1174.28 78.843 1174.5 78.6252C1174.73 78.4073 1175.01 78.2984 1175.35 78.2984C1175.74 78.2984 1176.08 78.4618 1176.38 78.7885C1176.68 79.1044 1176.83 79.5618 1176.83 80.1608C1176.83 80.847 1176.65 81.4024 1176.28 81.8272C1175.92 82.252 1175.41 82.4643 1174.76 82.4643ZM1183.24 80.5039V72.9726H1184.66V74.3449C1184.81 73.8983 1185.08 73.528 1185.47 73.234C1185.87 72.929 1186.34 72.7765 1186.91 72.7765C1188.21 72.7765 1189.01 73.3156 1189.33 74.3939C1189.5 73.9256 1189.81 73.5389 1190.24 73.234C1190.68 72.929 1191.18 72.7765 1191.75 72.7765C1193.55 72.7765 1194.46 73.7622 1194.46 75.7335V80.5039H1193.04V76.0112C1193.04 74.6716 1192.49 74.0018 1191.4 74.0018C1190.17 74.0018 1189.56 74.8622 1189.56 76.583V80.5039H1188.14V76.1093C1188.14 74.7043 1187.6 74.0018 1186.52 74.0018C1185.93 74.0018 1185.47 74.2196 1185.15 74.6553C1184.82 75.08 1184.66 75.7226 1184.66 76.583V80.5039H1183.24ZM1202.22 72.9726H1203.64V80.6509C1203.64 81.8381 1203.3 82.7421 1202.61 83.3629C1202 83.9074 1201.18 84.1797 1200.14 84.1797C1199.06 84.1797 1198.21 83.9183 1197.6 83.3955C1197.04 82.9272 1196.76 82.2792 1196.75 81.4514H1198.18C1198.24 82.4752 1198.89 82.9871 1200.13 82.9871C1201.52 82.9871 1202.22 82.1757 1202.22 80.5529V79.1479C1201.72 80.1826 1200.85 80.6999 1199.61 80.6999C1198.66 80.6999 1197.94 80.4113 1197.47 79.8341C1196.99 79.246 1196.75 78.4563 1196.75 77.4652V72.9726H1198.17V77.1712C1198.17 77.9009 1198.31 78.4618 1198.59 78.8539C1198.89 79.2351 1199.38 79.4257 1200.08 79.4257C1200.77 79.4257 1201.29 79.1806 1201.66 78.6905C1202.03 78.1895 1202.22 77.5741 1202.22 76.8444V72.9726ZM1210.23 80.5039V72.9726H1211.65V74.3612C1211.86 73.8711 1212.18 73.4845 1212.63 73.2013C1213.09 72.9181 1213.64 72.7765 1214.28 72.7765C1216.15 72.7765 1217.09 73.8058 1217.09 75.8642V80.5039H1215.67V76.485C1215.67 75.6355 1215.52 75.0092 1215.21 74.6063C1214.92 74.2033 1214.44 74.0018 1213.77 74.0018C1213.09 74.0018 1212.56 74.2251 1212.19 74.6716C1211.83 75.1182 1211.65 75.7335 1211.65 76.5177V80.5039H1210.23ZM1222.59 80.6999C1221.42 80.6999 1220.51 80.3296 1219.84 79.589C1219.19 78.8484 1218.86 77.9009 1218.86 76.7464C1218.86 75.6028 1219.2 74.6553 1219.88 73.9038C1220.56 73.1523 1221.48 72.7765 1222.62 72.7765C1223.21 72.7765 1223.74 72.9127 1224.2 73.185C1224.67 73.4572 1225.03 73.8275 1225.27 74.2959V72.9726H1226.67V80.5039H1225.27V79.1806C1225.03 79.638 1224.66 80.0084 1224.17 80.2915C1223.68 80.5638 1223.15 80.6999 1222.59 80.6999ZM1222.78 79.4257C1223.58 79.4257 1224.2 79.1697 1224.65 78.6578C1225.1 78.135 1225.33 77.4979 1225.33 76.7464C1225.33 75.984 1225.1 75.3469 1224.65 74.835C1224.2 74.3122 1223.58 74.0508 1222.78 74.0508C1222.02 74.0508 1221.41 74.3068 1220.95 74.8186C1220.5 75.3196 1220.27 75.9622 1220.27 76.7464C1220.27 77.5306 1220.5 78.1732 1220.95 78.6742C1221.41 79.1752 1222.02 79.4257 1222.78 79.4257ZM1229.12 80.5039V72.9726H1230.54V74.3449C1230.69 73.8983 1230.97 73.528 1231.36 73.234C1231.75 72.929 1232.23 72.7765 1232.79 72.7765C1234.09 72.7765 1234.9 73.3156 1235.21 74.3939C1235.39 73.9256 1235.69 73.5389 1236.13 73.234C1236.56 72.929 1237.06 72.7765 1237.63 72.7765C1239.44 72.7765 1240.34 73.7622 1240.34 75.7335V80.5039H1238.92V76.0112C1238.92 74.6716 1238.38 74.0018 1237.29 74.0018C1236.06 74.0018 1235.44 74.8622 1235.44 76.583V80.5039H1234.02V76.1093C1234.02 74.7043 1233.48 74.0018 1232.4 74.0018C1231.81 74.0018 1231.36 74.2196 1231.03 74.6553C1230.7 75.08 1230.54 75.7226 1230.54 76.583V80.5039H1229.12ZM1249.39 76.3053C1249.39 76.5122 1249.38 76.7954 1249.34 77.1548H1243.51C1243.52 77.8737 1243.74 78.44 1244.17 78.8539C1244.59 79.2569 1245.16 79.4583 1245.88 79.4583C1246.88 79.4583 1247.55 79.088 1247.87 78.3474H1249.3C1249.16 79.0445 1248.78 79.6108 1248.15 80.0465C1247.52 80.4821 1246.76 80.6999 1245.88 80.6999C1244.73 80.6999 1243.81 80.346 1243.12 79.638C1242.44 78.9192 1242.11 77.9499 1242.11 76.7301C1242.11 75.532 1242.44 74.5736 1243.12 73.8548C1243.8 73.1359 1244.69 72.7765 1245.82 72.7765C1246.88 72.7765 1247.74 73.1033 1248.4 73.7567C1249.06 74.4102 1249.39 75.2597 1249.39 76.3053ZM1243.51 76.0603H1247.99C1247.99 75.3959 1247.79 74.8731 1247.4 74.4919C1247.02 74.1107 1246.49 73.9201 1245.8 73.9201C1245.12 73.9201 1244.58 74.1162 1244.17 74.5082C1243.76 74.9003 1243.54 75.4177 1243.51 76.0603ZM1256.08 71.682C1255.74 71.682 1255.47 71.573 1255.25 71.3552C1255.03 71.1374 1254.92 70.8651 1254.92 70.5384C1254.92 70.2116 1255.03 69.9393 1255.25 69.7215C1255.47 69.4928 1255.74 69.3784 1256.08 69.3784C1256.41 69.3784 1256.68 69.4928 1256.9 69.7215C1257.12 69.9393 1257.23 70.2116 1257.23 70.5384C1257.23 70.8651 1257.12 71.1374 1256.9 71.3552C1256.68 71.573 1256.41 71.682 1256.08 71.682ZM1255.36 80.5039V72.9726H1256.78V80.5039H1255.36ZM1261.77 80.6999C1260.82 80.6999 1260.06 80.4658 1259.49 79.9975C1258.92 79.5182 1258.64 78.9356 1258.64 78.2494H1260.04C1260.04 78.6306 1260.2 78.9465 1260.53 79.197C1260.86 79.4366 1261.29 79.5564 1261.84 79.5564C1262.26 79.5564 1262.6 79.4583 1262.85 79.2623C1263.1 79.0663 1263.23 78.7994 1263.23 78.4618C1263.23 77.9281 1262.98 77.6014 1262.49 77.4816L1260.48 76.9588C1259.4 76.6647 1258.86 75.9895 1258.86 74.933C1258.86 74.3122 1259.13 73.8003 1259.65 73.3973C1260.17 72.9835 1260.85 72.7765 1261.69 72.7765C1262.61 72.7765 1263.31 72.9889 1263.81 73.4137C1264.33 73.8275 1264.58 74.3721 1264.58 75.0474H1263.18C1263.18 74.688 1263.04 74.4048 1262.77 74.1978C1262.5 73.98 1262.12 73.8711 1261.63 73.8711C1261.23 73.8711 1260.91 73.9637 1260.65 74.1488C1260.39 74.3231 1260.27 74.5627 1260.27 74.8677C1260.27 75.3795 1260.55 75.7008 1261.1 75.8315L1262.98 76.3543C1263.52 76.4959 1263.93 76.7464 1264.22 77.1058C1264.52 77.4652 1264.66 77.8737 1264.66 78.3311C1264.66 79.0499 1264.41 79.6272 1263.9 80.0628C1263.38 80.4876 1262.68 80.6999 1261.77 80.6999ZM1278.75 73.0216C1278.75 73.9147 1278.53 74.6934 1278.08 75.3578C1277.63 76.0221 1277.03 76.485 1276.27 76.7464L1278.59 80.5039H1276.89L1274.68 76.9588H1272.3V80.5039H1270.81V69.068H1274.91C1276.03 69.068 1276.95 69.4383 1277.67 70.179C1278.39 70.9196 1278.75 71.8671 1278.75 73.0216ZM1272.3 70.4077V75.6192H1274.83C1275.54 75.6192 1276.12 75.3741 1276.58 74.884C1277.03 74.3939 1277.26 73.7731 1277.26 73.0216C1277.26 72.2592 1277.03 71.6329 1276.58 71.1428C1276.12 70.6527 1275.54 70.4077 1274.83 70.4077H1272.3ZM1283.25 80.6999C1282.38 80.6999 1281.68 80.4386 1281.16 79.9158C1280.65 79.3821 1280.39 78.6143 1280.39 77.6123V72.9726H1281.81V77.2692C1281.81 78.7395 1282.42 79.4747 1283.64 79.4747C1284.36 79.4747 1284.9 79.246 1285.25 78.7885C1285.6 78.3202 1285.78 77.7539 1285.78 77.0895V72.9726H1287.21V80.5039H1285.78V79.1316C1285.58 79.6108 1285.25 79.992 1284.8 80.2752C1284.37 80.5584 1283.85 80.6999 1283.25 80.6999ZM1289.65 80.5039V72.9726H1291.07V74.3612C1291.28 73.8711 1291.6 73.4845 1292.05 73.2013C1292.51 72.9181 1293.06 72.7765 1293.7 72.7765C1295.57 72.7765 1296.51 73.8058 1296.51 75.8642V80.5039H1295.09V76.485C1295.09 75.6355 1294.94 75.0092 1294.63 74.6063C1294.34 74.2033 1293.86 74.0018 1293.19 74.0018C1292.51 74.0018 1291.98 74.2251 1291.61 74.6716C1291.25 75.1182 1291.07 75.7335 1291.07 76.5177V80.5039H1289.65ZM1302.2 80.6999C1301 80.6999 1300.05 80.3242 1299.34 79.5727C1298.64 78.8103 1298.28 77.8628 1298.28 76.7301C1298.28 75.5974 1298.64 74.6553 1299.34 73.9038C1300.05 73.1523 1301 72.7765 1302.2 72.7765C1303.39 72.7765 1304.34 73.1577 1305.05 73.9201C1305.76 74.6716 1306.12 75.6083 1306.12 76.7301C1306.12 77.8628 1305.76 78.8103 1305.05 79.5727C1304.34 80.3242 1303.39 80.6999 1302.2 80.6999ZM1300.36 78.6742C1300.81 79.1752 1301.43 79.4257 1302.2 79.4257C1302.98 79.4257 1303.59 79.1752 1304.03 78.6742C1304.48 78.1623 1304.7 77.5142 1304.7 76.7301C1304.7 75.9568 1304.48 75.3196 1304.03 74.8186C1303.59 74.3068 1302.98 74.0508 1302.2 74.0508C1301.43 74.0508 1300.81 74.3068 1300.36 74.8186C1299.91 75.3196 1299.69 75.9622 1299.69 76.7464C1299.69 77.5197 1299.91 78.1623 1300.36 78.6742ZM1164.85 91.9726H1166.28V99.6509C1166.28 100.838 1165.93 101.742 1165.25 102.363C1164.64 102.907 1163.81 103.18 1162.78 103.18C1161.69 103.18 1160.84 102.918 1160.23 102.396C1159.68 101.927 1159.39 101.279 1159.38 100.451H1160.82C1160.87 101.475 1161.52 101.987 1162.76 101.987C1164.16 101.987 1164.85 101.176 1164.85 99.5529V98.1479C1164.35 99.1826 1163.48 99.6999 1162.24 99.6999C1161.29 99.6999 1160.58 99.4113 1160.1 98.8341C1159.62 98.246 1159.38 97.4563 1159.38 96.4652V91.9726H1160.8V96.1712C1160.8 96.9009 1160.94 97.4618 1161.23 97.8539C1161.52 98.2351 1162.02 98.4257 1162.71 98.4257C1163.4 98.4257 1163.93 98.1806 1164.3 97.6905C1164.67 97.1895 1164.85 96.5741 1164.85 95.8444V91.9726ZM1172.05 99.6999C1170.85 99.6999 1169.9 99.3242 1169.19 98.5727C1168.48 97.8103 1168.13 96.8628 1168.13 95.7301C1168.13 94.5974 1168.48 93.6553 1169.19 92.9038C1169.9 92.1523 1170.85 91.7765 1172.05 91.7765C1173.24 91.7765 1174.18 92.1577 1174.89 92.9201C1175.61 93.6716 1175.97 94.6083 1175.97 95.7301C1175.97 96.8628 1175.61 97.8103 1174.89 98.5727C1174.18 99.3242 1173.24 99.6999 1172.05 99.6999ZM1170.2 97.6742C1170.66 98.1752 1171.28 98.4257 1172.05 98.4257C1172.82 98.4257 1173.43 98.1752 1173.88 97.6742C1174.33 97.1623 1174.55 96.5142 1174.55 95.7301C1174.55 94.9568 1174.33 94.3196 1173.88 93.8186C1173.43 93.3068 1172.82 93.0508 1172.05 93.0508C1171.28 93.0508 1170.66 93.3068 1170.2 93.8186C1169.76 94.3196 1169.53 94.9622 1169.53 95.7464C1169.53 96.5197 1169.76 97.1623 1170.2 97.6742ZM1180.59 99.6999C1179.72 99.6999 1179.02 99.4386 1178.5 98.9158C1177.98 98.3821 1177.73 97.6143 1177.73 96.6123V91.9726H1179.15V96.2692C1179.15 97.7395 1179.76 98.4747 1180.98 98.4747C1181.7 98.4747 1182.23 98.246 1182.58 97.7885C1182.94 97.3202 1183.12 96.7539 1183.12 96.0895V91.9726H1184.54V99.5039H1183.12V98.1316C1182.91 98.6108 1182.59 98.992 1182.14 99.2752C1181.7 99.5584 1181.19 99.6999 1180.59 99.6999ZM1187.43 87.774C1187.79 87.774 1188.12 87.9265 1188.4 88.2314C1188.68 88.5364 1188.82 88.972 1188.82 89.5384C1188.82 90.181 1188.65 90.7037 1188.3 91.1067C1187.95 91.5097 1187.47 91.7112 1186.85 91.7112C1186.64 91.7112 1186.47 91.6948 1186.34 91.6622V91.0087C1186.46 91.0305 1186.63 91.0414 1186.85 91.0414C1187.28 91.0414 1187.58 90.8617 1187.74 90.5022C1187.9 90.2735 1187.97 90.0012 1187.97 89.6854C1187.84 89.8488 1187.64 89.9305 1187.35 89.9305C1187.06 89.9305 1186.81 89.8324 1186.6 89.6364C1186.41 89.4403 1186.31 89.1844 1186.31 88.8686C1186.31 88.5527 1186.41 88.2913 1186.62 88.0844C1186.82 87.8774 1187.1 87.774 1187.43 87.774ZM1190.33 99.5039V91.9726H1191.76V93.688C1191.9 93.0889 1192.18 92.6369 1192.59 92.332C1193 92.0161 1193.46 91.8582 1193.96 91.8582C1194.26 91.8582 1194.48 91.88 1194.65 91.9236V93.2305C1194.48 93.1978 1194.25 93.1815 1193.95 93.1815C1193.24 93.1815 1192.69 93.4647 1192.31 94.031C1191.94 94.5974 1191.76 95.3216 1191.76 96.2038V99.5039H1190.33ZM1202.7 95.3053C1202.7 95.5122 1202.68 95.7954 1202.65 96.1548H1196.81C1196.83 96.8737 1197.04 97.44 1197.47 97.8539C1197.89 98.2569 1198.46 98.4583 1199.18 98.4583C1200.19 98.4583 1200.85 98.088 1201.18 97.3474H1202.6C1202.47 98.0445 1202.09 98.6108 1201.45 99.0465C1200.82 99.4821 1200.07 99.6999 1199.18 99.6999C1198.03 99.6999 1197.11 99.346 1196.42 98.638C1195.75 97.9192 1195.41 96.9499 1195.41 95.7301C1195.41 94.532 1195.75 93.5736 1196.42 92.8548C1197.1 92.1359 1198 91.7765 1199.12 91.7765C1200.19 91.7765 1201.05 92.1033 1201.7 92.7567C1202.36 93.4102 1202.7 94.2597 1202.7 95.3053ZM1196.81 95.0603H1201.29C1201.29 94.3959 1201.1 93.8731 1200.7 93.4919C1200.32 93.1107 1199.79 92.9201 1199.1 92.9201C1198.43 92.9201 1197.88 93.1162 1197.47 93.5082C1197.07 93.9003 1196.85 94.4177 1196.81 95.0603ZM1210.35 99.5039L1207.57 91.9726H1209.12L1210.94 97.4618L1212.77 91.9726H1214.29L1216.12 97.4618L1217.93 91.9726H1219.5L1216.7 99.5039H1215.49L1213.52 93.7206L1211.56 99.5039H1210.35ZM1227.17 95.3053C1227.17 95.5122 1227.15 95.7954 1227.12 96.1548H1221.29C1221.3 96.8737 1221.52 97.44 1221.94 97.8539C1222.37 98.2569 1222.94 98.4583 1223.66 98.4583C1224.66 98.4583 1225.32 98.088 1225.65 97.3474H1227.07C1226.94 98.0445 1226.56 98.6108 1225.93 99.0465C1225.3 99.4821 1224.54 99.6999 1223.66 99.6999C1222.5 99.6999 1221.58 99.346 1220.9 98.638C1220.22 97.9192 1219.88 96.9499 1219.88 95.7301C1219.88 94.532 1220.22 93.5736 1220.9 92.8548C1221.57 92.1359 1222.47 91.7765 1223.59 91.7765C1224.66 91.7765 1225.52 92.1033 1226.17 92.7567C1226.84 93.4102 1227.17 94.2597 1227.17 95.3053ZM1221.29 95.0603H1225.76C1225.76 94.3959 1225.57 93.8731 1225.18 93.4919C1224.8 93.1107 1224.26 92.9201 1223.58 92.9201C1222.9 92.9201 1222.36 93.1162 1221.94 93.5082C1221.54 93.9003 1221.32 94.4177 1221.29 95.0603ZM1229.01 99.5039V88.068H1230.43V99.5039H1229.01ZM1236.02 99.6999C1234.88 99.6999 1233.97 99.3405 1233.29 98.6217C1232.62 97.892 1232.28 96.9336 1232.28 95.7464C1232.28 94.5593 1232.62 93.6063 1233.29 92.8874C1233.97 92.1577 1234.88 91.7929 1236.02 91.7929C1237.03 91.7929 1237.85 92.0488 1238.47 92.5607C1239.09 93.0617 1239.45 93.737 1239.53 94.5865H1238.11C1237.92 93.5736 1237.22 93.0671 1236.02 93.0671C1235.29 93.0671 1234.72 93.3068 1234.31 93.786C1233.89 94.2543 1233.68 94.9078 1233.68 95.7464C1233.68 96.585 1233.89 97.244 1234.31 97.7232C1234.72 98.1915 1235.29 98.4257 1236.02 98.4257C1237.21 98.4257 1237.9 97.9356 1238.11 96.9553H1239.53C1239.45 97.794 1239.09 98.4638 1238.47 98.9648C1237.85 99.4549 1237.03 99.6999 1236.02 99.6999ZM1244.78 99.6999C1243.59 99.6999 1242.63 99.3242 1241.92 98.5727C1241.22 97.8103 1240.86 96.8628 1240.86 95.7301C1240.86 94.5974 1241.22 93.6553 1241.92 92.9038C1242.63 92.1523 1243.59 91.7765 1244.78 91.7765C1245.97 91.7765 1246.92 92.1577 1247.63 92.9201C1248.35 93.6716 1248.7 94.6083 1248.7 95.7301C1248.7 96.8628 1248.35 97.8103 1247.63 98.5727C1246.92 99.3242 1245.97 99.6999 1244.78 99.6999ZM1242.94 97.6742C1243.4 98.1752 1244.01 98.4257 1244.78 98.4257C1245.56 98.4257 1246.17 98.1752 1246.61 97.6742C1247.06 97.1623 1247.28 96.5142 1247.28 95.7301C1247.28 94.9568 1247.06 94.3196 1246.61 93.8186C1246.17 93.3068 1245.56 93.0508 1244.78 93.0508C1244.01 93.0508 1243.4 93.3068 1242.94 93.8186C1242.49 94.3196 1242.27 94.9622 1242.27 95.7464C1242.27 96.5197 1242.49 97.1623 1242.94 97.6742ZM1250.55 99.5039V91.9726H1251.97V93.3449C1252.12 92.8983 1252.39 92.528 1252.78 92.234C1253.18 91.929 1253.65 91.7765 1254.22 91.7765C1255.52 91.7765 1256.32 92.3156 1256.64 93.3939C1256.81 92.9256 1257.12 92.5389 1257.55 92.234C1257.99 91.929 1258.49 91.7765 1259.06 91.7765C1260.86 91.7765 1261.77 92.7622 1261.77 94.7335V99.5039H1260.35V95.0112C1260.35 93.6716 1259.8 93.0018 1258.71 93.0018C1257.48 93.0018 1256.87 93.8622 1256.87 95.583V99.5039H1255.45V95.1093C1255.45 93.7043 1254.91 93.0018 1253.83 93.0018C1253.24 93.0018 1252.78 93.2196 1252.46 93.6553C1252.13 94.08 1251.97 94.7226 1251.97 95.583V99.5039H1250.55ZM1270.82 95.3053C1270.82 95.5122 1270.8 95.7954 1270.77 96.1548H1264.94C1264.95 96.8737 1265.17 97.44 1265.59 97.8539C1266.02 98.2569 1266.59 98.4583 1267.31 98.4583C1268.31 98.4583 1268.97 98.088 1269.3 97.3474H1270.72C1270.59 98.0445 1270.21 98.6108 1269.58 99.0465C1268.95 99.4821 1268.19 99.6999 1267.31 99.6999C1266.15 99.6999 1265.23 99.346 1264.55 98.638C1263.87 97.9192 1263.53 96.9499 1263.53 95.7301C1263.53 94.532 1263.87 93.5736 1264.55 92.8548C1265.22 92.1359 1266.12 91.7765 1267.24 91.7765C1268.31 91.7765 1269.17 92.1033 1269.82 92.7567C1270.49 93.4102 1270.82 94.2597 1270.82 95.3053ZM1264.94 95.0603H1269.41C1269.41 94.3959 1269.22 93.8731 1268.83 93.4919C1268.45 93.1107 1267.91 92.9201 1267.23 92.9201C1266.55 92.9201 1266.01 93.1162 1265.59 93.5082C1265.19 93.9003 1264.97 94.4177 1264.94 95.0603ZM1279.94 98.3113C1280.33 98.3113 1280.65 98.2841 1280.89 98.2296V99.4876C1280.56 99.5638 1280.14 99.6019 1279.63 99.6019C1279.4 99.6019 1279.2 99.591 1279.03 99.5693C1278.86 99.5475 1278.67 99.4876 1278.44 99.3895C1278.21 99.2915 1278.02 99.1554 1277.87 98.9811C1277.72 98.796 1277.58 98.54 1277.48 98.2133C1277.37 97.8757 1277.31 97.4727 1277.31 97.0044V93.1652H1275.96V91.9726H1277.31V89.5874H1278.73V91.9726H1280.63V93.1652H1278.73V96.694C1278.73 97.3583 1278.83 97.794 1279.03 98.0009C1279.22 98.2078 1279.53 98.3113 1279.94 98.3113ZM1285.83 99.6999C1284.64 99.6999 1283.68 99.3242 1282.97 98.5727C1282.27 97.8103 1281.91 96.8628 1281.91 95.7301C1281.91 94.5974 1282.27 93.6553 1282.97 92.9038C1283.68 92.1523 1284.64 91.7765 1285.83 91.7765C1287.02 91.7765 1287.97 92.1577 1288.68 92.9201C1289.4 93.6716 1289.75 94.6083 1289.75 95.7301C1289.75 96.8628 1289.4 97.8103 1288.68 98.5727C1287.97 99.3242 1287.02 99.6999 1285.83 99.6999ZM1283.99 97.6742C1284.44 98.1752 1285.06 98.4257 1285.83 98.4257C1286.61 98.4257 1287.22 98.1752 1287.66 97.6742C1288.11 97.1623 1288.33 96.5142 1288.33 95.7301C1288.33 94.9568 1288.11 94.3196 1287.66 93.8186C1287.22 93.3068 1286.61 93.0508 1285.83 93.0508C1285.06 93.0508 1284.44 93.3068 1283.99 93.8186C1283.54 94.3196 1283.32 94.9622 1283.32 95.7464C1283.32 96.5197 1283.54 97.1623 1283.99 97.6742ZM1295.81 99.5039V88.068H1297.39L1302.54 97.0207V88.068H1303.96V99.5039H1302.39L1297.25 90.5513V99.5039H1295.81ZM1305.6 99.5039L1309.36 93.786L1305.6 88.068H1307.28L1310.2 92.5607L1313.13 88.068H1314.81L1311.05 93.786L1314.81 99.5039H1313.13L1310.2 95.0276L1307.28 99.5039H1305.6ZM1318.88 99.5039V89.473H1315.47V88.068H1323.78V89.473H1320.37V99.5039H1318.88Z" fill="black"/>
</g>
<defs>
<filter id="filter0_d_1_60" x="0.866617" y="19.0162" width="1406.36" height="920.855" filterUnits="userSpaceOnUse" color-interpolation-filters="sRGB">
<feFlood flood-opacity="0" result="BackgroundImageFix"/>
<feColorMatrix in="SourceAlpha" type="matrix" values="0 0 0 0 0 0 0 0 0 0 0 0 0 0 0 0 0 0 127 0" result="hardAlpha"/>
<feOffset dx="12.0373" dy="40.1244"/>
<feGaussianBlur stdDeviation="40.1244"/>
<feComposite in2="hardAlpha" operator="out"/>
<feColorMatrix type="matrix" values="0 0 0 0 0 0 0 0 0 0 0 0 0 0 0 0 0 0 0.1 0"/>
<feBlend mode="normal" in2="BackgroundImageFix" result="effect1_dropShadow_1_60"/>
<feBlend mode="normal" in="SourceGraphic" in2="effect1_dropShadow_1_60" result="shape"/>
</filter>
<filter id="filter1_d_1_60" x="626.623" y="0.227186" width="330.006" height="214.185" filterUnits="userSpaceOnUse" color-interpolation-filters="sRGB">
<feFlood flood-opacity="0" result="BackgroundImageFix"/>
<feColorMatrix in="SourceAlpha" type="matrix" values="0 0 0 0 0 0 0 0 0 0 0 0 0 0 0 0 0 0 127 0" result="hardAlpha"/>
<feOffset dx="9.80217" dy="29.4065"/>
<feGaussianBlur stdDeviation="28.5897"/>
<feComposite in2="hardAlpha" operator="out"/>
<feColorMatrix type="matrix" values="0 0 0 0 0 0 0 0 0 0 0 0 0 0 0 0 0 0 0.1 0"/>
<feBlend mode="normal" in2="BackgroundImageFix" result="effect1_dropShadow_1_60"/>
<feBlend mode="normal" in="SourceGraphic" in2="effect1_dropShadow_1_60" result="shape"/>
</filter>
<filter id="filter2_d_1_60" x="278.623" y="164.227" width="330.006" height="214.185" filterUnits="userSpaceOnUse" color-interpolation-filters="sRGB">
<feFlood flood-opacity="0" result="BackgroundImageFix"/>
<feColorMatrix in="SourceAlpha" type="matrix" values="0 0 0 0 0 0 0 0 0 0 0 0 0 0 0 0 0 0 127 0" result="hardAlpha"/>
<feOffset dx="9.80217" dy="29.4065"/>
<feGaussianBlur stdDeviation="28.5897"/>
<feComposite in2="hardAlpha" operator="out"/>
<feColorMatrix type="matrix" values="0 0 0 0 0 0 0 0 0 0 0 0 0 0 0 0 0 0 0.1 0"/>
<feBlend mode="normal" in2="BackgroundImageFix" result="effect1_dropShadow_1_60"/>
<feBlend mode="normal" in="SourceGraphic" in2="effect1_dropShadow_1_60" result="shape"/>
</filter>
<filter id="filter3_d_1_60" x="1089.62" y="13.2272" width="330.006" height="214.185" filterUnits="userSpaceOnUse" color-interpolation-filters="sRGB">
<feFlood flood-opacity="0" result="BackgroundImageFix"/>
<feColorMatrix in="SourceAlpha" type="matrix" values="0 0 0 0 0 0 0 0 0 0 0 0 0 0 0 0 0 0 127 0" result="hardAlpha"/>
<feOffset dx="9.80217" dy="29.4065"/>
<feGaussianBlur stdDeviation="28.5897"/>
<feComposite in2="hardAlpha" operator="out"/>
<feColorMatrix type="matrix" values="0 0 0 0 0 0 0 0 0 0 0 0 0 0 0 0 0 0 0.1 0"/>
<feBlend mode="normal" in2="BackgroundImageFix" result="effect1_dropShadow_1_60"/>
<feBlend mode="normal" in="SourceGraphic" in2="effect1_dropShadow_1_60" result="shape"/>
</filter>
</defs>
</svg>
