<svg width="166" height="57" viewBox="0 0 166 57" fill="none" xmlns="http://www.w3.org/2000/svg">
<path d="M91.8352 15.6562C91.8352 13.8983 93.2434 12.4414 94.9401 12.4414C96.6389 12.4414 98.045 13.8983 98.045 15.6562V41.3744C98.045 43.1322 96.6369 44.5891 94.9401 44.5891C94.1629 44.5891 93.3382 44.2881 92.7568 43.6339L73.2019 23.3921V41.3744C73.2019 43.1322 71.7938 44.5891 70.0971 44.5891C68.4003 44.5891 66.9922 43.1322 66.9922 41.3744V15.6562C66.9922 13.8983 68.4003 12.4414 70.0971 12.4414C70.9217 12.4414 71.699 12.7926 72.2804 13.3966L91.8352 33.6384V15.6562Z" fill="#373435"/>
<path d="M103.035 17.9158C102.451 17.3137 102.113 16.509 102.113 15.6562C102.113 13.9485 103.569 12.4414 105.218 12.4414C106.043 12.4414 106.82 12.7926 107.401 13.3966L117.64 23.9941L127.878 13.3966C128.461 12.7926 129.237 12.4414 130.061 12.4414C131.711 12.4414 133.166 13.9485 133.166 15.6562C133.166 16.511 132.826 17.3137 132.244 17.9158L122.006 28.5153L132.244 39.1148C132.828 39.767 133.166 40.5717 133.166 41.3744C133.166 43.1322 131.758 44.5891 130.061 44.5891C129.237 44.5891 128.509 44.2881 127.878 43.6339L117.64 33.0364L107.401 43.6339C106.771 44.2881 105.993 44.5891 105.218 44.5891C103.519 44.5891 102.113 43.1322 102.113 41.3744C102.113 40.5195 102.404 39.767 103.035 39.1148L113.273 28.5153L103.035 17.9158Z" fill="#373435"/>
<path d="M148.917 18.8709H140.085C138.387 18.8709 136.98 17.4141 136.98 15.6562C136.98 13.8983 138.389 12.4414 140.085 12.4414H162.894C164.592 12.4414 165.998 13.8983 165.998 15.6562C165.998 17.4141 164.59 18.8709 162.894 18.8709H155.129V41.3744C155.129 43.1322 153.721 44.5891 152.024 44.5891C150.326 44.5891 148.92 43.1322 148.92 41.3744V18.8709H148.917Z" fill="#373435"/>
<path d="M12.838 17.9883H5.75V36.2996H12.838V17.9883Z" fill="#D6D8D6"/>
<path d="M50.0021 17.9883H42.9141V36.2996H50.0021V17.9883Z" fill="#D6D8D6"/>
<path d="M44.6383 41.0854L48.8047 31.9766L8.84419 14.6598L4.67779 23.7687L44.6383 41.0854Z" fill="#D6D8D6"/>
<path d="M27.9756 9.85936C30.6309 9.85936 32.7834 7.7642 32.7834 5.17968C32.7834 2.59517 30.6309 0.5 27.9756 0.5C25.3203 0.5 23.1678 2.59517 23.1678 5.17968C23.1678 7.7642 25.3203 9.85936 27.9756 9.85936Z" fill="#ADADAD"/>
<path d="M27.9758 56.5C30.631 56.5 32.7836 54.4048 32.7836 51.8203C32.7836 49.2358 30.631 47.1406 27.9758 47.1406C25.3205 47.1406 23.168 49.2358 23.168 51.8203C23.168 54.4048 25.3205 56.5 27.9758 56.5Z" fill="#ADADAD"/>
<path d="M25.6479 8.02397L24.2852 5.72656L9.50026 14.0354L10.863 16.3328L25.6479 8.02397Z" fill="#ADADAD"/>
<path d="M44.9185 16.3365L46.2812 14.0391L31.4963 5.73022L30.1336 8.02762L44.9185 16.3365Z" fill="#ADADAD"/>
<path d="M24.2857 51.2349L25.6484 48.9375L10.8635 40.6287L9.50076 42.9261L24.2857 51.2349Z" fill="#ADADAD"/>
<path d="M46.2768 42.9263L44.9141 40.6289L30.1291 48.9378L31.4919 51.2352L46.2768 42.9263Z" fill="#ADADAD"/>
<path d="M48.6332 45.8903C45.2892 45.8903 42.5699 43.2435 42.5699 39.9886C42.5699 39.9103 42.5719 39.8341 42.576 39.7558L10.7275 21.8578C10.4759 22.0224 10.21 22.1709 9.93167 22.2993V34.6868C12.0243 35.6541 13.3767 37.6849 13.3767 39.9886C13.3767 43.2415 10.6574 45.8903 7.31335 45.8903C3.96933 45.8903 1.25 43.2435 1.25 39.9886C1.25 37.6828 2.60039 35.6541 4.69504 34.6868V22.2993C2.60245 21.3321 1.25 19.3033 1.25 16.9975C1.25 13.7446 3.96933 11.0958 7.31335 11.0958C10.6574 11.0958 13.3767 13.7426 13.3767 16.9975C13.3767 17.146 13.3705 17.2965 13.3561 17.4511L45.0335 35.2527C45.3407 35.036 45.6685 34.8453 46.0149 34.6848V22.2973C43.9223 21.3321 42.5699 19.3013 42.5699 16.9955C42.5699 13.7426 45.2892 11.0938 48.6332 11.0938C51.9772 11.0938 54.6966 13.7406 54.6966 16.9955C54.6966 19.3013 53.3441 21.33 51.2515 22.2973V34.6848C53.3441 35.65 54.6966 37.6808 54.6966 39.9866C54.6966 43.2435 51.9772 45.8903 48.6332 45.8903Z" fill="url(#paint0_linear_72_41)"/>
<path d="M48.6367 12.3211C51.2921 12.3211 53.4445 14.4161 53.4445 17.0008C53.4445 19.1219 51.9869 20.8918 49.9995 21.4657V35.5248C51.9869 36.1008 53.4445 37.8707 53.4445 39.9898C53.4445 42.5745 51.2921 44.6695 48.6367 44.6695C45.9813 44.6695 43.8289 42.5745 43.8289 39.9918C43.8289 39.6868 43.864 39.3918 43.9217 39.1028L10.6196 20.3881C10.0774 20.8878 9.41562 21.253 8.68167 21.4657V35.5248C10.6691 36.1008 12.1267 37.8707 12.1267 39.9898C12.1267 42.5745 9.97433 44.6695 7.31891 44.6695C4.66348 44.6695 2.5111 42.5745 2.5111 39.9898C2.5111 37.8687 3.9687 36.0988 5.95615 35.5248V21.4657C3.9687 20.8898 2.5111 19.1199 2.5111 17.0008C2.5111 14.4161 4.66348 12.3211 7.31891 12.3211C9.97433 12.3211 12.1267 14.4161 12.1267 17.0008C12.1267 17.378 12.069 17.7392 11.9824 18.0904L45.1834 36.7489C45.7504 36.177 46.4699 35.7596 47.276 35.5269V21.4677C45.2886 20.8918 43.831 19.1219 43.831 17.0028C43.8289 14.4161 45.9813 12.3211 48.6367 12.3211ZM48.6367 9.87891C44.602 9.87891 41.3199 13.0736 41.3199 17.0008C41.3199 19.5132 42.6476 21.7567 44.7649 23.027V33.6927L14.6296 16.758C14.4976 12.9432 11.267 9.87891 7.31684 9.87891C3.28217 9.87891 0 13.0736 0 17.0008C0 19.5132 1.32771 21.7567 3.44504 23.027V33.9636C1.32771 35.2339 0 37.4774 0 39.9898C0 43.917 3.28217 47.1117 7.31684 47.1117C11.3515 47.1117 14.6337 43.917 14.6337 39.9898C14.6337 37.4774 13.306 35.2339 11.1886 33.9636V23.5286L41.3343 40.4694C41.5879 44.1738 44.7649 47.1117 48.6346 47.1117C52.6693 47.1117 55.9515 43.917 55.9515 39.9898C55.9515 37.4774 54.6238 35.2339 52.5064 33.9636V23.027C54.6238 21.7567 55.9515 19.5132 55.9515 17.0008C55.9535 13.0736 52.6714 9.87891 48.6367 9.87891Z" fill="white"/>
<defs>
<linearGradient id="paint0_linear_72_41" x1="1.25132" y1="28.4945" x2="54.6963" y2="28.4945" gradientUnits="userSpaceOnUse">
<stop stop-color="#3EC5F0"/>
<stop offset="0.2063" stop-color="#0880BD"/>
<stop offset="1" stop-color="#1F2F5E"/>
</linearGradient>
</defs>
</svg>
