<svg width="68" height="68" viewBox="0 0 68 68" fill="none" xmlns="http://www.w3.org/2000/svg">
<path fill-rule="evenodd" clip-rule="evenodd" d="M8.40625 51.8398H59.5353V64.5721H8.40625V51.8398Z" fill="#666666"/>
<path fill-rule="evenodd" clip-rule="evenodd" d="M19.5127 55.2712C19.6213 55.4922 19.6776 55.7326 19.6703 56.0269L12.7166 56.0297C12.5043 56.0297 12.1717 56.1508 12.0496 56.4281C11.8979 56.7732 12.0726 57.1695 12.4174 57.3215C12.5548 57.382 12.7983 57.3737 12.7983 57.3737H17.857C18.7626 57.4377 19.5694 58.0191 19.8805 58.9765C20.1515 59.8101 20.0116 60.5035 19.4602 61.1844C18.8228 61.97 17.9509 61.9801 16.99 61.9787L11.3928 61.9724C10.7853 61.9717 10.2739 61.3737 10.1876 60.7596L10.1838 60.4482L17.5735 60.4552C17.8205 60.4559 18.1378 60.1146 18.1461 59.7649C18.1555 59.3878 17.8949 59.0291 17.5174 59.0291H12.1944C11.2734 59.0291 10.3351 58.1655 10.1838 57.0849C10.0613 56.211 10.3487 55.5499 11.0271 54.9853C11.5392 54.5591 11.9282 54.4383 12.6446 54.4369L17.5679 54.4307C18.3291 54.4164 19.1565 54.5476 19.5127 55.2712ZM31.0224 54.463C32.2123 54.4637 33.1774 55.6877 33.145 56.9677C33.1141 58.2031 32.0366 59.3439 31.0489 59.3439H26.8969C26.289 59.2698 25.8228 58.8294 25.5828 58.3193C25.501 58.1203 25.4965 57.8402 25.4732 57.6322L25.6878 57.6364H30.7069C30.9233 57.6364 31.1299 57.4381 31.2326 57.1893C31.3265 56.9618 31.3202 56.7767 31.2061 56.5589C31.0798 56.3171 30.8519 56.1647 30.6279 56.1647H25.0313L24.9788 56.2176V61.1733C24.9788 61.6339 24.5763 61.9738 24.1014 61.9648C23.6856 61.9575 23.297 61.6196 23.297 61.182V55.8756C23.297 55.4365 23.4636 55.1784 23.7757 54.8826C24.1021 54.5726 24.5321 54.4557 24.8476 54.4557L31.0224 54.463ZM40.0337 56.4635C40.5848 57.23 41.1923 57.9693 41.7183 58.7664H38.0054L39.8525 56.4542C39.8525 56.4542 39.9029 56.3759 39.9502 56.3801C39.9955 56.3842 40.0337 56.4635 40.0337 56.4635ZM41.551 55.6042C42.5091 56.936 44.4428 59.434 45.4229 60.8427C45.5464 61.1614 45.4017 61.5031 45.2396 61.7623C44.9752 62.009 44.5417 62.0611 44.2407 61.9199C43.7665 61.4965 43.4381 60.9711 43.0585 60.5011L36.6729 60.4875L35.9179 61.5107C35.6792 61.8336 35.3769 62.0549 34.9121 61.9728C34.6703 61.9237 34.44 61.7198 34.3596 61.5C34.2364 61.2147 34.2497 60.9447 34.4125 60.6851L38.4591 55.3245C38.799 54.8162 39.1657 54.4533 39.7999 54.4568C40.7967 54.47 40.8642 54.7201 41.551 55.6042ZM55.908 54.463C56.7865 54.4637 57.6083 55.1289 57.9377 56.0878C58.2912 57.1159 57.9649 58.0257 57.1699 58.7664C56.9925 58.931 56.6703 59.1341 56.6703 59.1341L57.7676 60.7053C57.8675 60.8487 57.9002 61.1339 57.8062 61.3813C57.7199 61.6095 57.6044 61.7442 57.3793 61.8406C57.0735 61.9724 56.6692 61.85 56.5395 61.6903C56.5395 61.6903 55.4895 60.412 54.9091 59.6856C54.8065 59.5781 54.7543 59.4796 54.6461 59.3704L51.8492 59.3839C51.1555 59.3874 50.3365 58.5583 50.3365 57.898V57.6426L55.5451 57.6364C55.7403 57.6357 55.9588 57.4537 56.0649 57.2157C56.1613 57.0004 56.1599 56.8271 56.0649 56.6118C55.9522 56.3536 55.6947 56.1706 55.4926 56.1706L49.8275 56.187L49.8112 56.2433V61.2923C49.8112 61.628 49.347 62.0608 48.8923 62.018C48.4724 61.978 48.1286 61.5504 48.1286 61.2529L48.1356 55.9024C48.1363 55.3443 48.2981 55.1276 48.6502 54.8214C48.9939 54.5225 49.3039 54.4564 49.7586 54.4564L55.908 54.463Z" fill="white"/>
<path fill-rule="evenodd" clip-rule="evenodd" d="M20.9747 31.3605C20.2987 32.2501 19.6053 33.1263 18.8948 33.9886L31.6069 33.9629C31.5321 35.6516 31.9298 37.7103 31.1432 39.1593C30.3527 40.7486 28.4973 41.5376 26.7821 41.5717C21.6559 41.0968 18.2467 36.6209 16.297 32.3858C16.1503 32.0495 16.0172 31.7074 15.8979 31.3605C14.1444 26.2757 15.0904 19.7537 18.4311 15.5909C23.3955 9.04631 32.1615 6.40252 40.3291 8.90993C45.3106 10.4609 49.7405 14.3106 51.9279 19.2096C53.5064 22.9089 53.554 27.3682 52.2716 31.3608C51.4488 33.9194 50.0801 36.2862 48.2163 38.1385C45.9142 40.0757 43.4325 42.1173 40.2366 41.4792C38.4928 41.0735 37.2407 39.8673 36.803 38.2311C36.4287 36.806 36.5216 35.4384 36.7105 33.9629L49.6818 33.9406L49.3297 33.4991C48.7281 32.7952 48.1373 32.0823 47.5574 31.3605C41.8412 24.2418 37.2682 16.3487 34.1119 8.07494C30.7984 16.2575 26.3019 24.3535 20.9747 31.3605ZM10.8556 31.3605C12.8749 38.9342 19.01 45.1434 26.5963 47.3242C36.1496 50.3263 46.9569 47.1265 53.1338 39.8085C55.1221 37.3975 56.5551 34.4715 57.3494 31.3605C58.6833 26.1362 58.215 20.3897 55.5458 15.6831C53.6365 12.3623 50.8299 9.2314 47.6593 7.23925C40.5334 2.5525 29.9582 2.18128 22.5135 6.12592C14.8837 10.0198 9.61946 18.1599 10.1726 27.0035C10.246 28.4759 10.475 29.9363 10.8556 31.3605Z" fill="#666666"/>
</svg>
