<svg width="24" height="24" viewBox="0 0 24 24" fill="none" xmlns="http://www.w3.org/2000/svg">
<path d="M21.9219 7.90307C21.9107 7.06331 21.7535 6.23191 21.4573 5.44604C21.2005 4.78317 20.8082 4.18116 20.3055 3.67848C19.8028 3.1758 19.2008 2.78351 18.5379 2.52666C17.7622 2.23545 16.9426 2.07799 16.1142 2.06098C15.0475 2.01331 14.7094 2 12.0017 2C9.29414 2 8.9471 2 7.88823 2.06098C7.06016 2.07812 6.24099 2.23558 5.46557 2.52666C4.8026 2.78333 4.2005 3.17556 3.6978 3.67826C3.19509 4.18097 2.80286 4.78307 2.54619 5.44604C2.2544 6.22122 2.09728 7.04057 2.08162 7.8687C2.03395 8.93644 2.01953 9.27461 2.01953 11.9822C2.01953 14.6898 2.01953 15.0358 2.08162 16.0957C2.09825 16.9251 2.25459 17.7434 2.54619 18.5206C2.80329 19.1834 3.19582 19.7852 3.69869 20.2877C4.20156 20.7902 4.80371 21.1823 5.46668 21.4389C6.23997 21.7418 7.05928 21.9105 7.88934 21.9378C8.95708 21.9855 9.29525 21.9999 12.0029 21.9999C14.7105 21.9999 15.0575 21.9999 16.1164 21.9378C16.9448 21.9215 17.7644 21.7644 18.5401 21.4732C19.2028 21.2161 19.8047 20.8237 20.3073 20.3211C20.81 19.8184 21.2024 19.2166 21.4595 18.5539C21.7511 17.7777 21.9075 16.9595 21.9241 16.129C21.9718 15.0624 21.9862 14.7242 21.9862 12.0155C21.984 9.30787 21.984 8.96416 21.9219 7.90307ZM11.9951 17.1025C9.16331 17.1025 6.86927 14.8085 6.86927 11.9767C6.86927 9.14489 9.16331 6.85085 11.9951 6.85085C13.3545 6.85085 14.6583 7.39089 15.6196 8.35217C16.5809 9.31345 17.1209 10.6172 17.1209 11.9767C17.1209 13.3361 16.5809 14.6399 15.6196 15.6012C14.6583 16.5625 13.3545 17.1025 11.9951 17.1025ZM17.3249 7.8565C17.1679 7.85665 17.0124 7.82583 16.8674 7.76581C16.7223 7.7058 16.5905 7.61776 16.4794 7.50674C16.3684 7.39573 16.2804 7.26391 16.2204 7.11882C16.1604 6.97374 16.1295 6.81825 16.1297 6.66125C16.1297 6.50436 16.1606 6.34901 16.2206 6.20406C16.2807 6.05911 16.3687 5.92741 16.4796 5.81647C16.5905 5.70554 16.7222 5.61754 16.8672 5.5575C17.0121 5.49746 17.1675 5.46656 17.3244 5.46656C17.4813 5.46656 17.6366 5.49746 17.7816 5.5575C17.9265 5.61754 18.0582 5.70554 18.1692 5.81647C18.2801 5.92741 18.3681 6.05911 18.4281 6.20406C18.4882 6.34901 18.5191 6.50436 18.5191 6.66125C18.5191 7.32207 17.9846 7.8565 17.3249 7.8565Z" fill="white"/>
<path d="M11.9937 15.3077C13.8326 15.3077 15.3233 13.817 15.3233 11.9781C15.3233 10.1392 13.8326 8.64844 11.9937 8.64844C10.1548 8.64844 8.66406 10.1392 8.66406 11.9781C8.66406 13.817 10.1548 15.3077 11.9937 15.3077Z" fill="white"/>
</svg>
