<svg width="325" height="21" viewBox="0 0 325 21" fill="none" xmlns="http://www.w3.org/2000/svg">
<rect width="325" height="21" fill="#1E1E1E"/>
<g clip-path="url(#clip0_0_1)">
<rect width="1444" height="8056" transform="translate(-769 -483)" fill="white"/>
<path d="M-416.323 -203.416L-437.288 -132.195H-451.732L-465.676 -183.254L-479.619 -132.195H-494.264L-515.229 -203.416H-499.581L-486.54 -151.957L-472.397 -203.416H-458.654L-444.51 -151.957L-431.57 -203.416H-416.323ZM-389.091 -130.691C-393.037 -130.691 -396.682 -131.359 -400.025 -132.697C-403.302 -134.101 -406.144 -136.041 -408.552 -138.515C-410.959 -141.056 -412.832 -144.032 -414.169 -147.443C-415.507 -150.92 -416.175 -154.698 -416.175 -158.778C-416.175 -162.723 -415.507 -166.401 -414.169 -169.812C-412.832 -173.223 -410.993 -176.165 -408.652 -178.639C-406.245 -181.181 -403.436 -183.153 -400.226 -184.558C-397.016 -185.962 -393.538 -186.664 -389.794 -186.664C-385.915 -186.664 -382.404 -185.995 -379.261 -184.658C-376.051 -183.321 -373.309 -181.415 -371.035 -178.94C-368.762 -176.466 -367.023 -173.523 -365.819 -170.113C-364.549 -166.702 -363.913 -162.89 -363.913 -158.677V-155.167H-401.931C-401.329 -151.221 -399.891 -148.111 -397.618 -145.838C-395.344 -143.631 -392.468 -142.527 -388.991 -142.527C-386.584 -142.527 -384.41 -143.096 -382.471 -144.233C-380.465 -145.369 -378.826 -147.008 -377.556 -149.148L-365.017 -145.135C-366.22 -142.126 -368.026 -139.551 -370.433 -137.411C-372.841 -135.272 -375.65 -133.6 -378.86 -132.396C-382.07 -131.259 -385.48 -130.691 -389.091 -130.691ZM-389.794 -175.831C-392.87 -175.831 -395.478 -174.828 -397.618 -172.821C-399.691 -170.815 -401.062 -168.073 -401.731 -164.596H-378.358C-378.893 -168.073 -380.197 -170.815 -382.27 -172.821C-384.276 -174.828 -386.784 -175.831 -389.794 -175.831ZM-333.331 -132.195V-203.416H-318.385V-132.195H-333.331ZM-306.217 -132.195V-185.16H-293.277L-292.876 -178.338C-291.338 -180.88 -289.231 -182.886 -286.556 -184.357C-283.814 -185.895 -280.705 -186.664 -277.227 -186.664C-273.349 -186.664 -269.971 -185.728 -267.096 -183.856C-264.153 -182.05 -261.88 -179.442 -260.275 -176.031C-258.67 -172.621 -257.867 -168.608 -257.867 -163.994V-132.195H-271.911V-162.188C-271.911 -165.866 -272.747 -168.742 -274.419 -170.815C-276.09 -172.955 -278.398 -174.025 -281.34 -174.025C-283.48 -174.025 -285.352 -173.523 -286.957 -172.52C-288.562 -171.584 -289.833 -170.247 -290.769 -168.508C-291.706 -166.769 -292.174 -164.796 -292.174 -162.59V-132.195H-306.217ZM-222.081 -130.691C-225.893 -130.691 -229.437 -131.359 -232.714 -132.697C-235.924 -134.101 -238.733 -136.041 -241.14 -138.515C-243.481 -140.989 -245.32 -143.898 -246.658 -147.242C-247.995 -150.653 -248.664 -154.331 -248.664 -158.276C-248.664 -162.289 -247.995 -166 -246.658 -169.411C-245.253 -172.888 -243.347 -175.897 -240.94 -178.439C-238.465 -181.047 -235.59 -183.053 -232.313 -184.457C-229.036 -185.929 -225.492 -186.664 -221.68 -186.664C-217.868 -186.664 -214.357 -185.929 -211.147 -184.457C-207.937 -183.053 -205.229 -181.047 -203.022 -178.439C-200.748 -175.831 -199.177 -172.788 -198.308 -169.31L-211.649 -166.702C-212.652 -168.976 -214.056 -170.748 -215.862 -172.019C-217.668 -173.356 -219.707 -174.025 -221.981 -174.025C-224.388 -174.025 -226.528 -173.356 -228.401 -172.019C-230.207 -170.681 -231.644 -168.809 -232.714 -166.401C-233.784 -164.061 -234.319 -161.419 -234.319 -158.477C-234.319 -155.534 -233.818 -152.926 -232.815 -150.653C-231.745 -148.379 -230.273 -146.573 -228.401 -145.236C-226.528 -143.965 -224.388 -143.33 -221.981 -143.33C-219.574 -143.33 -217.4 -143.965 -215.461 -145.236C-213.521 -146.506 -212.084 -148.312 -211.147 -150.653L-197.806 -148.044C-198.675 -144.5 -200.314 -141.424 -202.721 -138.816C-205.062 -136.208 -207.904 -134.202 -211.248 -132.797C-214.591 -131.393 -218.203 -130.691 -222.081 -130.691ZM-165.477 -130.691C-170.292 -130.691 -174.505 -131.694 -178.116 -133.7C-181.66 -135.773 -184.436 -138.682 -186.442 -142.427C-188.381 -146.239 -189.351 -150.719 -189.351 -155.869V-185.16H-175.307V-155.568C-175.307 -151.756 -174.405 -148.747 -172.599 -146.54C-170.793 -144.4 -168.352 -143.33 -165.276 -143.33C-162.2 -143.33 -159.759 -144.4 -157.954 -146.54C-156.148 -148.747 -155.245 -151.756 -155.245 -155.568V-185.16H-141.202V-155.869C-141.202 -152.057 -141.77 -148.613 -142.907 -145.537C-144.044 -142.46 -145.682 -139.819 -147.822 -137.612C-149.962 -135.405 -152.537 -133.7 -155.546 -132.496C-158.489 -131.293 -161.799 -130.691 -165.477 -130.691ZM-129.987 -132.195V-207.027H-115.944V-178.439C-114.071 -180.98 -111.731 -182.986 -108.922 -184.457C-106.046 -185.929 -102.903 -186.664 -99.4926 -186.664C-96.0151 -186.664 -92.8052 -185.962 -89.8627 -184.558C-86.9203 -183.153 -84.3456 -181.181 -82.1388 -178.639C-79.9319 -176.165 -78.2266 -173.256 -77.0229 -169.912C-75.7523 -166.569 -75.117 -162.924 -75.117 -158.978C-75.117 -154.966 -75.7523 -151.254 -77.0229 -147.844C-78.2935 -144.433 -80.0657 -141.424 -82.3394 -138.816C-84.6131 -136.275 -87.2881 -134.268 -90.3643 -132.797C-93.4405 -131.393 -96.7507 -130.691 -100.295 -130.691C-103.773 -130.691 -106.916 -131.426 -109.724 -132.897C-112.533 -134.369 -114.84 -136.442 -116.646 -139.117L-117.047 -132.195H-129.987ZM-102.803 -143.33C-100.262 -143.33 -97.9879 -143.999 -95.9817 -145.336C-93.9755 -146.674 -92.4039 -148.479 -91.2671 -150.753C-90.0633 -153.093 -89.4615 -155.735 -89.4615 -158.677C-89.4615 -161.62 -90.0633 -164.228 -91.2671 -166.502C-92.4039 -168.842 -93.9755 -170.681 -95.9817 -172.019C-97.9879 -173.356 -100.262 -174.025 -102.803 -174.025C-105.344 -174.025 -107.618 -173.356 -109.624 -172.019C-111.63 -170.681 -113.235 -168.842 -114.439 -166.502C-115.576 -164.228 -116.144 -161.62 -116.144 -158.677C-116.144 -155.735 -115.576 -153.093 -114.439 -150.753C-113.235 -148.479 -111.63 -146.674 -109.624 -145.336C-107.618 -143.999 -105.344 -143.33 -102.803 -143.33ZM-49.5706 -130.691C-52.3124 -130.691 -54.8202 -131.092 -57.0939 -131.894C-59.3677 -132.697 -61.3739 -133.834 -63.1126 -135.305C-64.7844 -136.843 -66.0885 -138.615 -67.0247 -140.621C-67.961 -142.628 -68.4291 -144.835 -68.4291 -147.242C-68.4291 -150.586 -67.5263 -153.528 -65.7207 -156.069C-63.9151 -158.611 -61.3739 -160.583 -58.097 -161.988C-54.8202 -163.459 -51.0084 -164.195 -46.6616 -164.195C-44.4547 -164.195 -42.3816 -163.994 -40.4423 -163.593C-38.4361 -163.191 -36.4967 -162.623 -34.6243 -161.887V-164.997C-34.6243 -168.006 -35.4936 -170.447 -37.2323 -172.32C-38.9042 -174.192 -41.2114 -175.128 -44.1538 -175.128C-46.3607 -175.128 -48.3669 -174.56 -50.1725 -173.423C-51.9781 -172.353 -53.2487 -170.815 -53.9843 -168.809L-66.5232 -171.317C-65.7876 -174.393 -64.3498 -177.068 -62.2098 -179.342C-60.003 -181.682 -57.328 -183.488 -54.1849 -184.758C-51.0418 -186.029 -47.6313 -186.664 -43.9532 -186.664C-40.5426 -186.664 -37.433 -186.129 -34.6243 -185.059C-31.8156 -183.989 -29.4081 -182.451 -27.4019 -180.445C-25.3288 -178.439 -23.7572 -176.065 -22.6872 -173.323C-21.5504 -170.648 -20.982 -167.639 -20.982 -164.295V-132.195H-33.5208L-33.9221 -138.415C-35.3264 -136.141 -37.3661 -134.268 -40.0411 -132.797C-42.716 -131.393 -45.8925 -130.691 -49.5706 -130.691ZM-54.5862 -147.944C-54.5862 -146.072 -53.8171 -144.534 -52.279 -143.33C-50.7409 -142.126 -48.7012 -141.524 -46.16 -141.524C-43.9532 -141.524 -41.9804 -141.992 -40.2417 -142.929C-38.503 -143.865 -37.132 -145.135 -36.1289 -146.74C-35.1258 -148.412 -34.6243 -150.251 -34.6243 -152.258V-152.759C-36.0955 -153.361 -37.667 -153.829 -39.3389 -154.163C-41.0107 -154.565 -42.6826 -154.765 -44.3544 -154.765C-47.4975 -154.765 -50.0053 -154.13 -51.8778 -152.859C-53.6834 -151.656 -54.5862 -150.017 -54.5862 -147.944ZM11.4178 -130.691C7.73968 -130.691 4.56316 -131.393 1.8882 -132.797C-0.719886 -134.268 -2.75954 -136.375 -4.23077 -139.117C-5.63513 -141.859 -6.33731 -145.202 -6.33731 -149.148V-173.824H-15.3653V-185.16H-6.33731V-203.216H7.70624V-185.16H22.151V-173.824H7.70624V-150.853C7.70624 -148.312 8.24123 -146.339 9.31122 -144.935C10.3812 -143.597 12.0196 -142.929 14.2265 -142.929C15.3633 -142.929 16.5671 -143.096 17.8377 -143.43C19.1751 -143.765 20.4457 -144.199 21.6495 -144.734L24.1573 -134.202C22.4185 -133.132 20.4792 -132.296 18.3392 -131.694C16.1992 -131.025 13.8921 -130.691 11.4178 -130.691ZM56.5287 -130.691C52.5832 -130.691 48.9385 -131.359 45.5948 -132.697C42.318 -134.101 39.4759 -136.041 37.0684 -138.515C34.6609 -141.056 32.7885 -144.032 31.451 -147.443C30.1135 -150.92 29.4448 -154.698 29.4448 -158.778C29.4448 -162.723 30.1135 -166.401 31.451 -169.812C32.7885 -173.223 34.6275 -176.165 36.9681 -178.639C39.3755 -181.181 42.1843 -183.153 45.3942 -184.558C48.6042 -185.962 52.0816 -186.664 55.8266 -186.664C59.7053 -186.664 63.2161 -185.995 66.3592 -184.658C69.5692 -183.321 72.311 -181.415 74.5847 -178.94C76.8584 -176.466 78.5972 -173.523 79.8009 -170.113C81.0715 -166.702 81.7068 -162.89 81.7068 -158.677V-155.167H43.6889C44.2908 -151.221 45.7286 -148.111 48.0023 -145.838C50.276 -143.631 53.1516 -142.527 56.629 -142.527C59.0365 -142.527 61.2099 -143.096 63.1493 -144.233C65.1555 -145.369 66.7939 -147.008 68.0645 -149.148L80.6034 -145.135C79.3997 -142.126 77.5941 -139.551 75.1866 -137.411C72.7791 -135.272 69.9704 -133.6 66.7605 -132.396C63.5505 -131.259 60.1399 -130.691 56.5287 -130.691ZM55.8266 -175.831C52.7504 -175.831 50.1423 -174.828 48.0023 -172.821C45.9292 -170.815 44.5583 -168.073 43.8895 -164.596H67.262C66.727 -168.073 65.423 -170.815 63.3499 -172.821C61.3437 -174.828 58.8359 -175.831 55.8266 -175.831ZM92.6297 -115.544L90.0216 -123.468C92.0278 -124.003 93.7665 -124.806 95.2378 -125.876C96.7759 -126.946 97.9462 -128.183 98.7487 -129.587C99.618 -130.925 100.053 -132.362 100.053 -133.901C100.053 -134.369 100.019 -134.803 99.9524 -135.205C99.083 -134.603 98.0799 -134.302 96.9431 -134.302C95.6056 -134.302 94.3684 -134.636 93.2315 -135.305C92.1616 -135.974 91.2922 -136.876 90.6235 -138.013C89.9547 -139.217 89.6204 -140.488 89.6204 -141.825C89.6204 -143.23 89.9882 -144.5 90.7238 -145.637C91.5263 -146.841 92.5628 -147.777 93.8334 -148.446C95.104 -149.181 96.5084 -149.549 98.0465 -149.549C100.186 -149.549 102.092 -148.914 103.764 -147.643C105.436 -146.439 106.774 -144.768 107.777 -142.628C108.78 -140.488 109.281 -138.114 109.281 -135.506C109.281 -132.362 108.579 -129.453 107.175 -126.779C105.837 -124.037 103.898 -121.696 101.357 -119.757C98.8824 -117.817 95.9734 -116.413 92.6297 -115.544ZM139.326 -132.195V-203.416H154.272V-132.195H139.326ZM166.44 -132.195V-185.16H179.38L179.781 -178.338C181.319 -180.88 183.426 -182.886 186.101 -184.357C188.843 -185.895 191.952 -186.664 195.43 -186.664C199.308 -186.664 202.686 -185.728 205.561 -183.856C208.504 -182.05 210.777 -179.442 212.382 -176.031C213.987 -172.621 214.79 -168.608 214.79 -163.994V-132.195H200.746V-162.188C200.746 -165.866 199.91 -168.742 198.238 -170.815C196.567 -172.955 194.259 -174.025 191.317 -174.025C189.177 -174.025 187.305 -173.523 185.7 -172.52C184.095 -171.584 182.824 -170.247 181.888 -168.508C180.951 -166.769 180.483 -164.796 180.483 -162.59V-132.195H166.44ZM239.878 -132.195L220.016 -185.16H235.364L247.2 -147.041L259.238 -185.16H274.084L254.222 -132.195H239.878ZM303.976 -130.691C300.03 -130.691 296.385 -131.359 293.042 -132.697C289.765 -134.101 286.923 -136.041 284.515 -138.515C282.108 -141.056 280.235 -144.032 278.898 -147.443C277.56 -150.92 276.892 -154.698 276.892 -158.778C276.892 -162.723 277.56 -166.401 278.898 -169.812C280.235 -173.223 282.074 -176.165 284.415 -178.639C286.823 -181.181 289.631 -183.153 292.841 -184.558C296.051 -185.962 299.529 -186.664 303.274 -186.664C307.152 -186.664 310.663 -185.995 313.806 -184.658C317.016 -183.321 319.758 -181.415 322.032 -178.94C324.305 -176.466 326.044 -173.523 327.248 -170.113C328.518 -166.702 329.154 -162.89 329.154 -158.677V-155.167H291.136C291.738 -151.221 293.176 -148.111 295.449 -145.838C297.723 -143.631 300.599 -142.527 304.076 -142.527C306.483 -142.527 308.657 -143.096 310.596 -144.233C312.602 -145.369 314.241 -147.008 315.511 -149.148L328.05 -145.135C326.847 -142.126 325.041 -139.551 322.634 -137.411C320.226 -135.272 317.417 -133.6 314.207 -132.396C310.997 -131.259 307.587 -130.691 303.976 -130.691ZM303.274 -175.831C300.197 -175.831 297.589 -174.828 295.449 -172.821C293.376 -170.815 292.005 -168.073 291.337 -164.596H314.709C314.174 -168.073 312.87 -170.815 310.797 -172.821C308.791 -174.828 306.283 -175.831 303.274 -175.831ZM357.517 -130.691C353.772 -130.691 350.361 -131.293 347.285 -132.496C344.276 -133.7 341.701 -135.405 339.561 -137.612C337.488 -139.819 336.05 -142.427 335.248 -145.436L347.887 -148.145C348.556 -146.072 349.759 -144.433 351.498 -143.23C353.237 -142.026 355.31 -141.424 357.717 -141.424C359.991 -141.424 361.863 -141.925 363.335 -142.929C364.806 -143.932 365.542 -145.303 365.542 -147.041C365.542 -148.513 364.873 -149.716 363.535 -150.653C362.265 -151.656 360.125 -152.425 357.115 -152.96L354.307 -153.461C348.556 -154.464 344.175 -156.337 341.166 -159.079C338.224 -161.821 336.752 -165.298 336.752 -169.511C336.752 -172.855 337.622 -175.797 339.36 -178.338C341.099 -180.946 343.507 -182.986 346.583 -184.457C349.659 -185.929 353.203 -186.664 357.216 -186.664C360.76 -186.664 363.97 -186.062 366.846 -184.859C369.788 -183.722 372.229 -182.083 374.168 -179.943C376.108 -177.803 377.445 -175.229 378.181 -172.219L365.642 -169.611C364.973 -171.618 363.87 -173.189 362.332 -174.326C360.86 -175.463 359.122 -176.031 357.115 -176.031C355.042 -176.031 353.337 -175.53 352 -174.527C350.662 -173.523 349.993 -172.253 349.993 -170.715C349.993 -169.377 350.629 -168.24 351.899 -167.304C353.237 -166.435 355.477 -165.733 358.62 -165.198L361.429 -164.696C367.113 -163.693 371.46 -161.787 374.469 -158.978C377.479 -156.237 378.983 -152.726 378.983 -148.446C378.983 -145.838 378.448 -143.464 377.378 -141.324C376.375 -139.184 374.904 -137.311 372.965 -135.706C371.025 -134.101 368.752 -132.864 366.143 -131.995C363.535 -131.125 360.66 -130.691 357.517 -130.691ZM409.821 -130.691C406.143 -130.691 402.966 -131.393 400.292 -132.797C397.683 -134.268 395.644 -136.375 394.173 -139.117C392.768 -141.859 392.066 -145.202 392.066 -149.148V-173.824H383.038V-185.16H392.066V-203.216H406.11V-185.16H420.554V-173.824H406.11V-150.853C406.11 -148.312 406.645 -146.339 407.715 -144.935C408.785 -143.597 410.423 -142.929 412.63 -142.929C413.767 -142.929 414.97 -143.096 416.241 -143.43C417.578 -143.765 418.849 -144.199 420.053 -144.734L422.561 -134.202C420.822 -133.132 418.883 -132.296 416.743 -131.694C414.603 -131.025 412.295 -130.691 409.821 -130.691ZM-329.003 0.810908C-332.681 0.810908 -336.058 0.309353 -339.134 -0.693757C-342.143 -1.69687 -344.785 -3.10122 -347.059 -4.90682C-349.265 -6.77929 -350.971 -8.9527 -352.175 -11.427C-353.378 -13.9683 -353.98 -16.7435 -353.98 -19.7529C-353.98 -23.8322 -352.877 -27.5437 -350.67 -30.8874C-348.463 -34.298 -345.387 -37.0732 -341.441 -39.2132C-344.049 -42.1557 -345.922 -44.8641 -347.059 -47.3384C-348.129 -49.8127 -348.664 -52.3539 -348.664 -54.962C-348.664 -57.7039 -348.162 -60.2116 -347.159 -62.4854C-346.156 -64.826 -344.751 -66.8322 -342.946 -68.504C-341.14 -70.2427 -339 -71.5802 -336.526 -72.5165C-334.052 -73.4527 -331.343 -73.9208 -328.401 -73.9208C-325.525 -73.9208 -322.884 -73.4527 -320.476 -72.5165C-318.069 -71.6471 -315.996 -70.4099 -314.257 -68.805C-312.451 -67.2 -311.08 -65.3275 -310.144 -63.1875C-309.141 -61.0476 -308.64 -58.707 -308.64 -56.1658C-308.64 -48.609 -313.053 -42.2894 -321.881 -37.207L-308.84 -23.8656C-307.636 -26.1393 -306.667 -28.6471 -305.931 -31.3889C-305.196 -34.1308 -304.727 -37.1067 -304.527 -40.3166L-292.088 -39.3135C-292.623 -34.4986 -293.559 -30.0515 -294.897 -25.9721C-296.234 -21.8928 -297.973 -18.2482 -300.113 -15.0382L-286.471 -1.19531H-304.326L-308.74 -5.70931C-311.549 -3.56934 -314.658 -1.96436 -318.069 -0.894379C-321.479 0.242479 -325.124 0.810908 -329.003 0.810908ZM-335.523 -55.263C-335.523 -53.7917 -335.088 -52.2871 -334.219 -50.749C-333.349 -49.2109 -331.845 -47.3718 -329.705 -45.2319C-327.164 -46.5025 -325.157 -48.0406 -323.686 -49.8462C-322.215 -51.7186 -321.479 -53.658 -321.479 -55.6642C-321.479 -57.6036 -322.115 -59.1751 -323.385 -60.3788C-324.656 -61.6494 -326.261 -62.2847 -328.2 -62.2847C-329.605 -62.2847 -330.875 -61.9838 -332.012 -61.3819C-333.082 -60.7801 -333.951 -59.9441 -334.62 -58.8742C-335.222 -57.8042 -335.523 -56.6004 -335.523 -55.263ZM-339.836 -21.0569C-339.836 -19.0507 -339.335 -17.312 -338.332 -15.8407C-337.262 -14.3695 -335.79 -13.1992 -333.918 -12.3298C-332.045 -11.5274 -329.905 -11.1261 -327.498 -11.1261C-323.82 -11.1261 -320.376 -12.1961 -317.166 -14.3361L-333.717 -31.2886C-335.657 -30.2186 -337.161 -28.7808 -338.231 -26.9753C-339.301 -25.1697 -339.836 -23.1969 -339.836 -21.0569ZM-258.979 -1.19531V-72.4162H-231.293C-225.676 -72.4162 -220.56 -71.5468 -215.946 -69.8081C-211.332 -68.1362 -207.353 -65.7288 -204.009 -62.5857C-200.665 -59.4426 -198.09 -55.6976 -196.285 -51.3508C-194.479 -47.004 -193.576 -42.1891 -193.576 -36.906C-193.576 -31.623 -194.513 -26.7746 -196.385 -22.3609C-198.191 -18.0141 -200.765 -14.2357 -204.109 -11.0258C-207.453 -7.88272 -211.465 -5.44181 -216.146 -3.70309C-220.761 -2.03124 -225.877 -1.19531 -231.494 -1.19531H-258.979ZM-244.033 -14.4364H-232.196C-227.448 -14.4364 -223.335 -15.3392 -219.858 -17.1448C-216.381 -18.9504 -213.706 -21.525 -211.833 -24.8687C-209.961 -28.2124 -209.024 -32.1914 -209.024 -36.8057C-209.024 -41.42 -209.961 -45.399 -211.833 -48.7428C-213.706 -52.0865 -216.381 -54.6611 -219.858 -56.4667C-223.335 -58.2723 -227.448 -59.1751 -232.196 -59.1751H-244.033V-14.4364ZM-183.767 -1.19531V-54.1595H-170.827L-170.325 -46.1347C-168.988 -48.9434 -167.182 -51.0833 -164.909 -52.5546C-162.635 -54.0927 -159.96 -54.8617 -156.884 -54.8617C-155.948 -54.8617 -155.011 -54.7614 -154.075 -54.5608C-153.139 -54.427 -152.303 -54.2264 -151.567 -53.9589L-153.072 -40.116C-153.808 -40.3835 -154.577 -40.5507 -155.379 -40.6176C-156.115 -40.7513 -156.884 -40.8182 -157.686 -40.8182C-161.565 -40.8182 -164.541 -39.6144 -166.614 -37.207C-168.687 -34.8664 -169.724 -31.5227 -169.724 -27.1759V-1.19531H-183.767ZM-128.851 -68.504C-128.851 -66.9659 -129.219 -65.595 -129.954 -64.3913C-130.623 -63.1875 -131.593 -62.2179 -132.863 -61.4823C-134.067 -60.8135 -135.404 -60.4791 -136.876 -60.4791C-138.347 -60.4791 -139.718 -60.8135 -140.988 -61.4823C-142.192 -62.2179 -143.162 -63.1875 -143.897 -64.3913C-144.566 -65.595 -144.901 -66.9659 -144.901 -68.504C-144.901 -70.0421 -144.566 -71.413 -143.897 -72.6168C-143.162 -73.8205 -142.192 -74.7567 -140.988 -75.4255C-139.718 -76.1611 -138.347 -76.5289 -136.876 -76.5289C-135.404 -76.5289 -134.067 -76.1611 -132.863 -75.4255C-131.593 -74.7567 -130.623 -73.8205 -129.954 -72.6168C-129.219 -71.413 -128.851 -70.0421 -128.851 -68.504ZM-143.897 -1.19531V-54.1595H-129.854V-1.19531H-143.897ZM-103.276 -1.19531L-123.138 -54.1595H-107.79L-95.9535 -16.0413L-83.9161 -54.1595H-69.0701L-88.9317 -1.19531H-103.276ZM-39.1782 0.309353C-43.1238 0.309353 -46.7684 -0.359387 -50.1121 -1.69687C-53.3889 -3.10122 -56.2311 -5.04057 -58.6385 -7.51491C-61.046 -10.0561 -62.9185 -13.032 -64.256 -16.4426C-65.5934 -19.92 -66.2622 -23.6984 -66.2622 -27.7777C-66.2622 -31.7233 -65.5934 -35.4014 -64.256 -38.812C-62.9185 -42.2225 -61.0794 -45.165 -58.7389 -47.6393C-56.3314 -50.1805 -53.5227 -52.1533 -50.3127 -53.5577C-47.1028 -54.962 -43.6253 -55.6642 -39.8804 -55.6642C-36.0017 -55.6642 -32.4908 -54.9955 -29.3477 -53.658C-26.1378 -52.3205 -23.3959 -50.4146 -21.1222 -47.9403C-18.8485 -45.4659 -17.1098 -42.5235 -15.906 -39.1129C-14.6354 -35.7023 -14.0001 -31.8905 -14.0001 -27.6774V-24.1665H-52.018C-51.4162 -20.221 -49.9784 -17.1113 -47.7046 -14.8376C-45.4309 -12.6308 -42.5553 -11.5274 -39.0779 -11.5274C-36.6704 -11.5274 -34.497 -12.0958 -32.5577 -13.2326C-30.5515 -14.3695 -28.913 -16.0079 -27.6424 -18.1479L-15.1036 -14.1354C-16.3073 -11.1261 -18.1129 -8.55146 -20.5203 -6.41149C-22.9278 -4.27152 -25.7365 -2.59967 -28.9465 -1.39593C-32.1564 -0.259076 -35.567 0.309353 -39.1782 0.309353ZM-39.8804 -44.8306C-42.9566 -44.8306 -45.5647 -43.8275 -47.7046 -41.8213C-49.7777 -39.8151 -51.1487 -37.0732 -51.8174 -33.5958H-28.4449C-28.9799 -37.0732 -30.284 -39.8151 -32.3571 -41.8213C-34.3633 -43.8275 -36.871 -44.8306 -39.8804 -44.8306ZM31.027 -1.19531L11.1654 -54.1595H26.513L38.3497 -16.0413L50.3871 -54.1595H65.2331L45.3715 -1.19531H31.027ZM86.4958 0.309353C83.754 0.309353 81.2462 -0.091891 78.9725 -0.894379C76.6988 -1.69687 74.6926 -2.83373 72.9538 -4.30495C71.282 -5.84306 69.9779 -7.61522 69.0417 -9.62144C68.1055 -11.6277 67.6374 -13.8345 67.6374 -16.242C67.6374 -19.5857 68.5402 -22.5281 70.3458 -25.0693C72.1513 -27.6106 74.6926 -29.5833 77.9694 -30.9877C81.2462 -32.4589 85.058 -33.1945 89.4048 -33.1945C91.6117 -33.1945 93.6848 -32.9939 95.6241 -32.5927C97.6304 -32.1914 99.5697 -31.623 101.442 -30.8874V-33.997C101.442 -37.0064 100.573 -39.4473 98.8341 -41.3197C97.1622 -43.1922 94.8551 -44.1284 91.9126 -44.1284C89.7058 -44.1284 87.6996 -43.56 85.894 -42.4232C84.0884 -41.3532 82.8178 -39.8151 82.0821 -37.8088L69.5433 -40.3166C70.2789 -43.3928 71.7167 -46.0678 73.8566 -48.3415C76.0635 -50.6821 78.7384 -52.4877 81.8815 -53.7583C85.0246 -55.0289 88.4352 -55.6642 92.1132 -55.6642C95.5238 -55.6642 98.6335 -55.1292 101.442 -54.0592C104.251 -52.9893 106.658 -51.4511 108.665 -49.4449C110.738 -47.4387 112.309 -45.0647 113.379 -42.3228C114.516 -39.6479 115.084 -36.6385 115.084 -33.2948V-1.19531H102.546L102.144 -7.4146C100.74 -5.14088 98.7003 -3.26841 96.0254 -1.79718C93.3504 -0.392824 90.1739 0.309353 86.4958 0.309353ZM81.4803 -16.9441C81.4803 -15.0717 82.2493 -13.5336 83.7874 -12.3298C85.3255 -11.1261 87.3652 -10.5242 89.9064 -10.5242C92.1132 -10.5242 94.086 -10.9924 95.8248 -11.9286C97.5635 -12.8648 98.9344 -14.1354 99.9375 -15.7404C100.941 -17.4123 101.442 -19.2513 101.442 -21.2575V-21.7591C99.9709 -22.3609 98.3994 -22.8291 96.7276 -23.1634C95.0557 -23.5647 93.3839 -23.7653 91.712 -23.7653C88.5689 -23.7653 86.0611 -23.13 84.1887 -21.8594C82.3831 -20.6557 81.4803 -19.0172 81.4803 -16.9441ZM126.276 -1.19531V-76.0274H140.32V-1.19531H126.276ZM175.424 0.309353C170.609 0.309353 166.396 -0.693757 162.785 -2.69998C159.24 -4.77307 156.465 -7.68209 154.459 -11.427C152.52 -15.2389 151.55 -19.7194 151.55 -24.8687V-54.1595H165.593V-24.5678C165.593 -20.756 166.496 -17.7466 168.302 -15.5398C170.107 -13.3998 172.548 -12.3298 175.625 -12.3298C178.701 -12.3298 181.142 -13.3998 182.947 -15.5398C184.753 -17.7466 185.656 -20.756 185.656 -24.5678V-54.1595H199.699V-24.8687C199.699 -21.0569 199.131 -17.6129 197.994 -14.5367C196.857 -11.4605 195.219 -8.81895 193.079 -6.61211C190.939 -4.40527 188.364 -2.69998 185.355 -1.49625C182.412 -0.292513 179.102 0.309353 175.424 0.309353ZM235.991 0.309353C232.046 0.309353 228.401 -0.359387 225.058 -1.69687C221.781 -3.10122 218.939 -5.04057 216.531 -7.51491C214.124 -10.0561 212.251 -13.032 210.914 -16.4426C209.576 -19.92 208.907 -23.6984 208.907 -27.7777C208.907 -31.7233 209.576 -35.4014 210.914 -38.812C212.251 -42.2225 214.09 -45.165 216.431 -47.6393C218.838 -50.1805 221.647 -52.1533 224.857 -53.5577C228.067 -54.962 231.544 -55.6642 235.289 -55.6642C239.168 -55.6642 242.679 -54.9955 245.822 -53.658C249.032 -52.3205 251.774 -50.4146 254.047 -47.9403C256.321 -45.4659 258.06 -42.5235 259.264 -39.1129C260.534 -35.7023 261.17 -31.8905 261.17 -27.6774V-24.1665H223.152C223.753 -20.221 225.191 -17.1113 227.465 -14.8376C229.739 -12.6308 232.614 -11.5274 236.092 -11.5274C238.499 -11.5274 240.673 -12.0958 242.612 -13.2326C244.618 -14.3695 246.257 -16.0079 247.527 -18.1479L260.066 -14.1354C258.862 -11.1261 257.057 -8.55146 254.649 -6.41149C252.242 -4.27152 249.433 -2.59967 246.223 -1.39593C243.013 -0.259076 239.603 0.309353 235.991 0.309353ZM235.289 -44.8306C232.213 -44.8306 229.605 -43.8275 227.465 -41.8213C225.392 -39.8151 224.021 -37.0732 223.352 -33.5958H246.725C246.19 -37.0732 244.886 -39.8151 242.813 -41.8213C240.806 -43.8275 238.299 -44.8306 235.289 -44.8306Z" fill="#0A014F"/>
<path d="M26.4077 2.94882C87.5077 2.94882 148.608 2.94882 209.708 2.94882C246.895 2.94882 285.77 6.18928 322.72 1.57063C327.735 0.943761 312.612 1.69859 307.56 1.80033C260.341 2.75104 213.114 3.82554 165.912 5.39895C118.566 6.97712 70.2554 8.45946 23.345 15.9651C20.7143 16.386 -0.958846 20.7667 1.60018 19.4872" stroke="#3EC5F0" stroke-width="2.00622" stroke-linecap="round"/>
</g>
<defs>
<clipPath id="clip0_0_1">
<rect width="1444" height="8056" fill="white" transform="translate(-769 -483)"/>
</clipPath>
</defs>
</svg>
